<?xml version="1.0" standalone="no"?>
<!DOCTYPE svg PUBLIC "-//W3C//DTD SVG 1.1//EN" "http://www.w3.org/Graphics/SVG/1.1/DTD/svg11.dtd" >
<svg xmlns="http://www.w3.org/2000/svg">
<defs>
  <font id="layout-icons" horiz-adv-x="256">
    <font-face font-family="layout-icons"
      units-per-em="256" ascent="256"
      descent="0" />
    <missing-glyph horiz-adv-x="0" />
    <glyph glyph-name="volume-off"
      unicode="&#xEA02;"
      horiz-adv-x="256" d="M128 213.3335L105.7065 191.04L128 168.7465M45.5465 224L32 210.4535L82.4535 160H32V96H74.6665L128 42.6665V114.4535L173.3335 69.0135C166.1865 63.5735 158.1865 59.0935 149.3335 56.5335V34.4535A96.138 96.138 0 0 1 188.5865 53.76L210.4535 32L224 45.5465L128 141.5465M202.6665 128C202.6665 117.9735 200.5335 108.5865 196.9065 99.84L213.0135 83.7335C219.9465 96.96 224 112 224 128C224 173.6535 192 211.84 149.3335 221.5465V199.5735C180.16 190.4 202.6665 161.8135 202.6665 128M176 128C176 146.88 165.3335 163.0935 149.3335 170.9865V147.4135L175.4665 121.28C176 123.4135 176 125.76 176 128z" />
    <glyph glyph-name="youtube-play"
      unicode="&#xEA03;"
      horiz-adv-x="256" d="M106.6665 80V176L170.6665 128M213.3335 209.0665C206.9335 211.2 167.4665 213.3335 128 213.3335S49.0665 211.3065 42.6665 209.28C26.0265 203.7335 21.3335 166.4 21.3335 128C21.3335 89.7065 26.0265 52.2665 42.6665 46.8265C49.0665 44.6935 88.5335 42.6665 128 42.6665S206.9335 44.6935 213.3335 46.8265C229.9735 52.2665 234.6665 89.7065 234.6665 128C234.6665 166.4 229.9735 203.6265 213.3335 209.0665z" />
    <glyph glyph-name="xml"
      unicode="&#xEA04;"
      horiz-adv-x="256" d="M137.4935 224L158.4 219.7335L118.5065 32L97.6 36.2665L137.4935 224M208.96 128L170.6665 166.2935V196.48L239.1465 128L170.6665 59.6265V89.8135L208.96 128M16.8535 128L85.3335 196.48V166.2935L47.04 128L85.3335 89.8135V59.6265L16.8535 128z" />
    <glyph glyph-name="xbox-controller-off"
      unicode="&#xEA05;"
      horiz-adv-x="256" d="M21.3335 199.7865L34.9865 213.3335L213.3335 34.9865L199.7865 21.3335L133.3335 88H93.3335C72 88 64 64 42.6665 53.3335C21.3335 53.3335 5.3335 84.9065 47.1465 173.9735L21.3335 199.7865M99.52 189.5465H156.48C170.6665 202.6665 200.64 184.8535 200.64 184.8535L205.3335 176H208C245.3335 96 237.6535 61.8665 220.6935 54.72L81.28 194.1335C88 194.88 94.6135 194.0265 99.52 189.5465M128 181.3335C122.1335 181.3335 117.3335 176.5335 117.3335 170.6665S122.1335 160 128 160S138.6665 164.8 138.6665 170.6665S133.8665 181.3335 128 181.3335z" />
    <glyph glyph-name="xbox-controller"
      unicode="&#xEA06;"
      horiz-adv-x="256" d="M93.3335 88C72 88 64 64 42.6665 53.3335C21.3335 53.3335 5.3335 85.3335 48 176H50.6665L55.36 184.8535S85.3335 202.6665 99.52 189.5465H156.48C170.6665 202.6665 200.64 184.8535 200.64 184.8535L205.3335 176H208C250.6665 85.3335 234.6665 53.3335 213.3335 53.3335C192 64 184 88 162.6665 88H93.3335M128 181.3335C122.1335 181.3335 117.3335 176.5335 117.3335 170.6665S122.1335 160 128 160S138.6665 164.8 138.6665 170.6665S133.8665 181.3335 128 181.3335z" />
    <glyph glyph-name="wrench"
      unicode="&#xEA07;"
      horiz-adv-x="256" d="M242.1335 53.3335L145.0665 150.4C154.6665 174.9335 149.3335 203.7335 129.0665 224C107.7335 245.3335 75.7335 249.6 50.1335 237.8665L96 192L64 160L17.0665 205.8665C4.2665 180.2665 9.6 148.2665 30.9335 126.9335C51.2 106.6665 80 101.3335 104.5335 110.9335L201.6 13.8665C205.8665 9.6 212.2665 9.6 216.5335 13.8665L241.0665 38.4C246.4 42.6665 246.4 50.1335 242.1335000000001 53.3335z" />
    <glyph glyph-name="windows"
      unicode="&#xEA08;"
      horiz-adv-x="256" d="M32 128V184L96 198.08V128.96L32 128M213.3335 224V130.6665L106.6665 129.0665V200.4265L213.3335 224M32 117.3335L96 116.3735V43.7335L32 56V117.3335M213.3335 114.6665V21.3335L106.6665 41.7065V116.2665L213.3335 114.6665z" />
    <glyph glyph-name="window-restore"
      unicode="&#xEA09;"
      horiz-adv-x="256" d="M42.6665 170.6665H85.3335V213.3335H213.3335V85.3335H170.6665V42.6665H42.6665V170.6665M170.6665 170.6665V106.6665H192V192H106.6665V170.6665H170.6665M64 128V64H149.3335V128H64z" />
    <glyph glyph-name="window-minimize"
      unicode="&#xEA0A;"
      horiz-adv-x="256" d="M213.3335 106.6665H42.6665V149.3335H213.3335" />
    <glyph glyph-name="window-maximize"
      unicode="&#xEA0B;"
      horiz-adv-x="256" d="M42.6665 213.3335H213.3335V42.6665H42.6665V213.3335M64 170.6665V64H192V170.6665H64z" />
    <glyph glyph-name="window-close"
      unicode="&#xEA0C;"
      horiz-adv-x="256" d="M143.5735 128L202.6665 68.9065V53.3335H187.0935L128 112.4265L68.9065 53.3335H53.3335V68.9065L112.4265 128L53.3335 187.0935V202.6665H68.9065L128 143.5735L187.0935 202.6665H202.6665V187.0935L143.5735 128z" />
    <glyph glyph-name="wifi-off"
      unicode="&#xEA0D;"
      horiz-adv-x="256" d="M24.32 224L10.6665 210.4535L26.3465 194.7735A159.075 159.075 0 0 1 12.8 185.6L32 160C37.6535 164.2665 43.52 168 49.7065 171.4135L73.4935 147.6265C65.6 144 58.0265 139.6265 51.2 134.4L70.4 108.8C78.72 114.9865 88.1065 119.7865 98.1335 122.9865L125.3335 96C112 95.2535 99.6265 90.6665 89.6 83.2L128 32L154.24 66.88L189.2265 32L202.6665 45.6535M128 224C105.0665 224 83.2 219.9465 62.9335 212.5865L88.4265 186.9865C101.3335 190.2935 114.3465 192 128 192C164.0535 192 197.3335 180.16 224 160L243.2 185.6C211.0935 209.7065 171.3065 224 128 224M128 160C123.9465 160 120 160 116.0535 159.4665L150.08 125.3335C163.0935 122.3465 175.2535 116.5865 185.6 108.8L204.8 134.4C183.4665 150.5065 156.8 160 128 160z" />
    <glyph glyph-name="wifi"
      unicode="&#xEA0E;"
      horiz-adv-x="256" d="M128 32L166.4 83.2C155.7335 91.2 142.4 96 128 96S100.2665 91.2 89.6 83.2L128 32M128 224C84.8 224 44.9065 209.7065 12.8 185.6L32 160C58.6665 180.0535 91.9465 192 128 192S197.3335 180.0535 224 160L243.2 185.6C211.0935 209.7065 171.2 224 128 224M128 160C99.2 160 72.64 150.5065 51.2 134.4L70.4 108.8C86.4 120.8535 106.3465 128 128 128S169.6 120.8535 185.6 108.8L204.8 134.4C183.36 150.5065 156.8 160 128 160z" />
    <glyph glyph-name="widgets"
      unicode="&#xEA0F;"
      horiz-adv-x="256" d="M32 224H117.3335V177.7065L177.7065 237.9735L237.9735 177.7065L177.7065 117.3335H224V32H138.6665V117.3335H177.7065L117.3335 177.7065V138.6665H32V224M32 117.3335H117.3335V32H32V117.3335z" />
    <glyph glyph-name="wechat"
      unicode="&#xEA10;"
      horiz-adv-x="256" d="M101.3335 213.3335C57.1735 213.3335 21.3335 184.64 21.3335 149.3335C21.3335 129.1735 32.8535 111.36 50.9865 99.6265L42.6665 74.6665L69.3335 90.6665C78.8265 87.36 89.28 85.3335 100.3735 85.3335C97.6 92.0535 96 99.2 96 106.6665C96 141.9735 129.3865 170.6665 170.6665 170.6665C172.6935 170.6665 174.72 170.6665 176.64 170.3465C165.76 195.3065 136.32 213.3335 101.3335 213.3335M69.3335 186.6665C75.2 186.6665 80 181.8665 80 176S75.2 165.3335 69.3335 165.3335S58.6665 170.1335 58.6665 176S63.4665 186.6665 69.3335 186.6665M122.6665 186.6665C128.5335 186.6665 133.3335 181.8665 133.3335 176S128.5335 165.3335 122.6665 165.3335S112 170.1335 112 176S116.8 186.6665 122.6665 186.6665M170.6665 160C135.36 160 106.6665 136.1065 106.6665 106.6665S135.36 53.3335 170.6665 53.3335C177.8135 53.3335 184.64 54.1865 191.04 56L213.3335 42.6665L206.72 62.6135C223.4665 72.32 234.6665 88.4265 234.6665 106.6665C234.6665 136.1065 205.9735 160 170.6665 160M149.3335 133.3335C155.2 133.3335 160 128.5335 160 122.6665S155.2 112 149.3335 112S138.6665 116.8 138.6665 122.6665S143.4665 133.3335 149.3335 133.3335M192 133.3335C197.8665 133.3335 202.6665 128.5335 202.6665 122.6665S197.8665 112 192 112S181.3335 116.8 181.3335 122.6665S186.1335 133.3335 192 133.3335z" />
    <glyph glyph-name="webpack"
      unicode="&#xEA11;"
      horiz-adv-x="256" d="M224 80C224 75.9465 221.76 72.4265 218.3465 70.6135L134.08 23.2535C132.3735 21.9735 130.24 21.3335 128 21.3335S123.6265 21.9735 121.92 23.2535L37.6535 70.6135C34.24 72.4265 32 75.9465 32 80V176C32 180.0535 34.24 183.5735 37.6535 185.3865L121.92 232.7465C123.6265 234.0265 125.76 234.6665 128 234.6665S132.3735 234.0265 134.08 232.7465L218.3465 185.3865C221.76 183.5735 224 180.0535 224 176V80M128 211.7335L53.3335 169.7065V86.2935L128 44.2665L202.6665 86.2935V169.7065L128 211.7335M128 189.5465L180.2665 159.36L128 129.1735L75.7335 159.36L128 189.5465M181.3335 97.1735L138.6665 72.5335V110.72L181.3335 135.36V97.1735M117.3335 72.5335L74.6665 97.1735V135.36L117.3335 110.72V72.5335z" />
    <glyph glyph-name="web"
      unicode="&#xEA12;"
      horiz-adv-x="256" d="M174.5065 106.6665C175.36 113.7065 176 120.7465 176 128C176 135.2535 175.36 142.2935 174.5065 149.3335H210.56C212.2665 142.5065 213.3335 135.36 213.3335 128S212.2665 113.4935 210.56 106.6665M155.6265 47.36C162.0265 59.2 166.9335 72 170.3465 85.3335H201.8135C191.5735 67.7335 175.2535 54.08 155.6265 47.36M152.96 106.6665H103.04C101.9735 113.7065 101.3335 120.7465 101.3335 128C101.3335 135.2535 101.9735 142.4 103.04 149.3335H152.96C153.92 142.4 154.6665 135.2535 154.6665 128C154.6665 120.7465 153.92 113.7065 152.96 106.6665M128 43.0935C119.1465 55.8935 112 70.08 107.6265 85.3335H148.3735C144 70.08 136.8535 55.8935 128 43.0935M85.3335 170.6665H54.1865C64.32 188.3735 80.7465 202.0265 100.2665 208.64C93.8665 196.8 89.0665 184 85.3335 170.6665M54.1865 85.3335H85.3335C89.0665 72 93.8665 59.2 100.2665 47.36C80.7465 54.08 64.32 67.7335 54.1865 85.3335M45.44 106.6665C43.7335 113.4935 42.6665 120.64 42.6665 128S43.7335 142.5065 45.44 149.3335H81.4935C80.64 142.2935 80 135.2535 80 128C80 120.7465 80.64 113.7065 81.4935 106.6665M128 213.0135C136.8535 200.2135 144 185.92 148.3735 170.6665H107.6265C112 185.92 119.1465 200.2135 128 213.0135M201.8135 170.6665H170.3465C166.9335 184 162.0265 196.8 155.6265 208.64A85.19250000000001 85.19250000000001 0 0 0 201.8135 170.6665M128 234.6665C69.0135 234.6665 21.3335 186.6665 21.3335 128C21.3335 69.12 69.12 21.3335 128 21.3335S234.6665 69.12 234.6665 128S186.88 234.6665 128 234.6665z" />
    <glyph glyph-name="wan"
      unicode="&#xEA13;"
      horiz-adv-x="256" d="M128 234.6665C80.8535 234.6665 42.6665 196.48 42.6665 149.3335C42.6665 106.3465 74.6665 70.1865 117.3335 64.7465V53.3335H106.6665C100.8 53.3335 96 48.5335 96 42.6665H21.3335V21.3335H96C96 15.4665 100.8 10.6665 106.6665 10.6665H149.3335C155.2 10.6665 160 15.4665 160 21.3335H234.6665V42.6665H160C160 48.5335 155.2 53.3335 149.3335 53.3335H138.6665V64.7465C181.3335 70.08 213.3335 106.3465 213.3335 149.3335C213.3335 196.48 175.1465 234.6665 128 234.6665M128 213.3335S135.8935 199.68 141.44 181.3335H114.56C120.1065 199.68 128 213.3335 128 213.3335M104.2135 208.7465C101.3335 203.4135 96.96 193.7065 93.2265 181.3335H72.64C80 193.7065 90.6665 203.4135 104.2135 208.7465M151.7865 208.64C165.3335 203.3065 176 193.7065 183.36 181.3335H162.7735C159.04 193.7065 154.6665 203.4135 151.7865 208.64M64.96 160H88.7465C88.32 156.48 88 152.96 88 149.3335C88 145.7065 88.32 142.1865 88.7465 138.6665H64.96A59.215 59.215 0 0 0 64 149.3335C64 152.96 64.32 156.48 64.96 160M110.08 160H145.92C146.3465 156.48 146.6665 152.96 146.6665 149.3335C146.6665 145.7065 146.3465 142.1865 145.92 138.6665H110.08C109.6535 142.1865 109.3335 145.7065 109.3335 149.3335C109.3335 152.96 109.6535 156.48 110.08 160M167.2535 160H191.04A59.215 59.215 0 0 0 192 149.3335C192 145.7065 191.68 142.1865 191.04 138.6665H167.2535C167.68 142.1865 168 145.7065 168 149.3335C168 152.96 167.68 156.48 167.2535 160M72.64 117.3335H93.2265C96.96 104.96 101.3335 95.2535 104.2135 90.0265C90.6665 95.36 80 104.96 72.64 117.3335M114.56 117.3335H141.44C135.8935 98.9865 128 85.3335 128 85.3335S120.1065 98.9865 114.56 117.3335M162.7735 117.3335H183.36C176 104.96 165.3335 95.2535 151.7865 89.92C154.6665 95.2535 159.04 104.96 162.7735 117.3335z" />
    <glyph glyph-name="wallet-travel"
      unicode="&#xEA14;"
      horiz-adv-x="256" d="M213.3335 106.6665H42.6665V170.6665H74.6665V149.3335H96V170.6665H160V149.3335H181.3335V170.6665H213.3335M213.3335 53.3335H42.6665V74.6665H213.3335M96 213.3335H160V192H96M213.3335 192H181.3335V213.3335A21.26 21.26 0 0 1 160 234.6665H96A21.26 21.26 0 0 1 74.6665 213.3335V192H42.6665A21.26 21.26 0 0 1 21.3335 170.6665V53.3335A21.26 21.26 0 0 1 42.6665 32H213.3335A21.26 21.26 0 0 1 234.6665 53.3335V170.6665A21.26 21.26 0 0 1 213.3335 192z" />
    <glyph glyph-name="volume-medium"
      unicode="&#xEA15;"
      horiz-adv-x="256" d="M53.3335 160V96H96L149.3335 42.6665V213.3335L96 160M197.3335 128C197.3335 146.88 186.6665 163.0935 170.6665 170.9865V85.3335C186.6665 92.9065 197.3335 109.2265 197.3335 128z" />
    <glyph glyph-name="volume-low"
      unicode="&#xEA16;"
      horiz-adv-x="256" d="M74.6665 160V96H117.3335L170.6665 42.6665V213.3335L117.3335 160H74.6665z" />
    <glyph glyph-name="volume-high"
      unicode="&#xEA17;"
      horiz-adv-x="256" d="M149.3335 221.5465V199.5735C180.16 190.4 202.6665 161.8135 202.6665 128S180.16 65.7065 149.3335 56.5335V34.4535C192 44.16 224 82.3465 224 128C224 173.6535 192 211.84 149.3335 221.5465M176 128C176 146.88 165.3335 163.0935 149.3335 170.9865V85.3335C165.3335 92.9065 176 109.2265 176 128M32 160V96H74.6665L128 42.6665V213.3335L74.6665 160H32z" />
    <glyph glyph-name="vlc"
      unicode="&#xEA18;"
      horiz-adv-x="256" d="M128 245.3335C123.52 245.3335 119.36 242.88 117.3335 237.3335L105.3865 203.9465C110.5065 198.4 120.32 197.3335 128 197.3335C135.68 197.3335 145.4935 198.4 150.72 203.9465L138.6665 237.3335C136.7465 242.6665 132.48 245.3335 128 245.3335M90.0265 160.96L74.6665 118.2935C86.08 103.7865 109.44 101.3335 128 101.3335C146.56 101.3335 169.92 103.7865 181.3335 118.2935L165.9735 160.96C157.44 151.1465 141.2265 149.3335 128 149.3335C114.7735 149.3335 98.56 151.1465 90.0265 160.96M58.0265 96C49.28 96 40.1065 89.0665 37.6535 80.64L21.9735 26.0265C19.6265 17.6 24.5335 10.6665 33.3865 10.6665H222.72C231.4665 10.6665 236.3735 17.6 234.0265 26.0265L218.3465 80.64C215.8935 89.0665 206.72 96 197.9735 96H189.3335L192.96 85.6535C194.24 82.24 195.0935 77.9735 192.96 74.9865C179.6265 56.5335 150.8265 53.3335 128 53.3335C105.1735 53.3335 76.3735 56.5335 63.04 74.9865C60.9065 77.9735 61.76 82.24 63.04 85.6535L66.6665 96H58.0265z" />
    <glyph glyph-name="vk"
      unicode="&#xEA19;"
      horiz-adv-x="256" d="M208.4265 100.2665C224.96 84.9065 228.3735 77.5465 228.9065 76.5865C235.7335 65.28 221.44 64.4265 221.44 64.4265L193.92 64S187.9465 62.8265 180.2665 68.16C169.92 75.2 160 93.6535 152.64 91.2C145.0665 88.7465 145.28 72.2135 145.28 72.2135S145.28 69.8665 143.5735 68.0535C141.6535 66.0265 137.92 66.7735 137.92 66.7735H125.6535S98.4535 64 74.6665 88.8535C48.5335 115.9465 25.4935 169.28 25.4935 169.28S24.2135 172.48 25.6 174.2935C27.2 176 31.68 176 31.68 176H61.12S64 176 65.8135 174.2935C67.4135 173.12 68.3735 170.6665 68.3735 170.6665S73.0665 158.8265 79.4665 147.9465C91.7335 126.72 97.3865 122.1335 101.3335 124.3735C107.7335 127.68 105.92 154.3465 105.92 154.3465S106.0265 164.0535 102.8265 168.32C100.3735 171.6265 95.68 172.6935 93.6535 172.9065C91.9465 173.12 94.72 176.96 98.24 178.7735C103.5735 181.3335 112.8535 181.3335 123.9465 181.3335C132.5865 181.3335 135.04 180.6935 138.3465 179.9465C148.5865 177.4935 145.0665 168 145.0665 145.3865C145.0665 138.0265 144 128 149.0135 124.48C151.2535 122.9865 156.8 124.2665 170.6665 147.6265C177.0665 158.72 181.9735 171.84 181.9735 171.84S183.04 174.08 184.64 175.1465C186.3465 176 188.6935 176 188.6935 176H219.6265S229.0135 177.0665 230.5065 172.9065C232.1065 168.5335 226.9865 158.1865 214.2935 141.44C193.6 113.7065 191.2535 116.2665 208.4265 100.2665z" />
    <glyph glyph-name="visualstudio"
      unicode="&#xEA1A;"
      horiz-adv-x="256" d="M181.3335 165.3335L130.6665 124.5865L181.3335 85.3335V165.3335M50.1335 59.7335L21.3335 77.8665V173.8665L53.3335 184.5335L99.2 149.0135L192 234.6665L234.6665 208V42.6665L181.3335 21.3335L99.6265 99.6265L50.1335 59.7335M53.3335 106.6665L73.1735 125.0135L53.3335 144V106.6665z" />
    <glyph glyph-name="view-list"
      unicode="&#xEA1B;"
      horiz-adv-x="256" d="M96 202.6665V160H224V202.6665M96 53.3335H224V96H96M96 106.6665H224V149.3335H96M42.6665 160H85.3335V202.6665H42.6665M42.6665 53.3335H85.3335V96H42.6665M42.6665 106.6665H85.3335V149.3335H42.6665V106.6665z" />
    <glyph glyph-name="view-grid"
      unicode="&#xEA1C;"
      horiz-adv-x="256" d="M32 138.6665H117.3335V224H32M32 32H117.3335V117.3335H32M138.6665 32H224V117.3335H138.6665M138.6665 224V138.6665H224V224" />
    <glyph glyph-name="view-carousel"
      unicode="&#xEA1D;"
      horiz-adv-x="256" d="M192 192V74.6665H234.6665V192M21.3335 74.6665H64V192H21.3335M74.6665 53.3335H181.3335V213.3335H74.6665V53.3335z" />
    <glyph glyph-name="video-off"
      unicode="&#xEA1E;"
      horiz-adv-x="256" d="M34.88 234.6665L21.3335 221.12L50.4535 192H42.6665C36.8 192 32 187.2 32 181.3335V74.6665C32 68.8 36.8 64 42.6665 64H170.6665C172.8 64 174.8265 64.8535 176.4265 65.92L210.4535 32L224 45.5465M224 186.6665L181.3335 144V181.3335C181.3335 187.2 176.5335 192 170.6665 192H104.7465L224 72.7465V186.6665z" />
    <glyph glyph-name="video"
      unicode="&#xEA1F;"
      horiz-adv-x="256" d="M181.3335 144V181.3335C181.3335 187.2 176.5335 192 170.6665 192H42.6665C36.8 192 32 187.2 32 181.3335V74.6665C32 68.8 36.8 64 42.6665 64H170.6665C176.5335 64 181.3335 68.8 181.3335 74.6665V112L224 69.3335V186.6665L181.3335 144z" />
    <glyph glyph-name="vibrate"
      unicode="&#xEA20;"
      horiz-adv-x="256" d="M170.6665 53.3335H85.3335V202.6665H170.6665M176 224H80C71.1465 224 64 216.8535 64 208V48C64 39.1465 71.1465 32 80 32H176C184.8535 32 192 39.1465 192 48V208C192 216.8535 184.8535 224 176 224M202.6665 74.6665H224V181.3335H202.6665M234.6665 160V96H256V160M32 74.6665H53.3335V181.3335H32M0 96H21.3335V160H0V96z" />
    <glyph glyph-name="verified"
      unicode="&#xEA21;"
      horiz-adv-x="256" d="M106.6665 74.6665L64 117.3335L79.04 132.3735L106.6665 104.8535L176.96 175.1465L192 160M128 245.3335L32 202.6665V138.6665C32 79.4665 72.96 24.1065 128 10.6665C183.04 24.1065 224 79.4665 224 138.6665V202.6665L128 245.3335z" />
    <glyph glyph-name="usb"
      unicode="&#xEA22;"
      horiz-adv-x="256" d="M160 181.3335V138.6665H170.6665V117.3335H138.6665V202.6665H160L128 245.3335L96 202.6665H117.3335V117.3335H85.3335V139.4135C92.8 143.36 98.1335 150.9335 98.1335 160C98.1335 173.0135 87.5735 183.4665 74.6665 183.4665A23.399 23.399 0 0 1 51.2 160C51.2 150.9335 56.5335 143.36 64 139.4135V117.3335C64 105.6 73.6 96 85.3335 96H117.3335V63.4665C109.76 59.6265 104.5335 51.7335 104.5335 42.6665A23.399 23.399 0 0 1 128 19.2A23.399 23.399 0 0 1 151.4665 42.6665C151.4665 51.7335 146.24 59.6265 138.6665 63.4665V96H170.6665C182.4 96 192 105.6 192 117.3335V138.6665H202.6665V181.3335H160z" />
    <glyph glyph-name="upload"
      unicode="&#xEA23;"
      horiz-adv-x="256" d="M96 85.3335V149.3335H53.3335L128 224L202.6665 149.3335H160V85.3335H96M53.3335 42.6665V64H202.6665V42.6665H53.3335z" />
    <glyph glyph-name="update"
      unicode="&#xEA24;"
      horiz-adv-x="256" d="M224 148.0535H151.68L180.9065 178.1335C151.7865 206.9335 104.64 208 75.52 179.2C46.4 150.2935 46.4 103.68 75.52 74.6665C104.64 45.8665 151.7865 45.8665 180.9065 74.6665C195.4135 89.0665 202.6665 105.8135 202.6665 126.9335H224C224 105.8135 214.6135 78.4 195.84 59.84C158.4 22.72 97.6 22.72 60.16 59.84C22.8265 96.8535 22.5065 157.0135 59.9465 194.0265C97.3865 231.04 157.44 231.04 194.88 194.0265L224 224V148.0535M133.3335 170.6665V125.3335L170.6665 103.1465L162.9865 90.24L117.3335 117.3335V170.6665H133.3335z" />
    <glyph glyph-name="unfold-more"
      unicode="&#xEA25;"
      horiz-adv-x="256" d="M128 62.1865L94.1865 96L79.1465 80.96L128 32L176.96 80.96L161.8135 96M128 193.8135L161.8135 160L176.8535 175.04L128 224L79.04 175.04L94.1865 160L128 193.8135z" />
    <glyph glyph-name="unfold-less"
      unicode="&#xEA26;"
      horiz-adv-x="256" d="M176.96 198.2935L161.8135 213.3335L128 179.52L94.1865 213.3335L79.04 198.2935L128 149.3335M79.04 57.7065L94.1865 42.6665L128 76.48L161.8135 42.6665L176.8535 57.7065L128 106.6665L79.04 57.7065z" />
    <glyph glyph-name="undo"
      unicode="&#xEA27;"
      horiz-adv-x="256" d="M133.3335 170.6665C105.0665 170.6665 79.4665 160 59.7335 142.9335L21.3335 181.3335V85.3335H117.3335L78.72 123.9465C93.5465 136.32 112.4265 144 133.3335 144C171.0935 144 203.2 119.36 214.4 85.3335L239.68 93.6535C224.8535 138.3465 182.9335 170.6665 133.3335 170.6665z" />
    <glyph glyph-name="umbrella-outline"
      unicode="&#xEA28;"
      horiz-adv-x="256" d="M128 213.3335C160.96 213.3335 190.08 191.5735 199.4665 160H56.5335C65.92 191.68 94.9335 213.3335 128 213.3335M128 234.6665C74.9865 234.6665 32 191.68 32 138.6665H117.3335V53.3335C117.3335 47.4665 112.5335 42.6665 106.6665 42.6665S96 47.4665 96 53.3335H74.6665C74.6665 35.6265 88.96 21.3335 106.6665 21.3335S138.6665 35.6265 138.6665 53.3335V138.6665H224C224 191.68 181.0135 234.6665 128 234.6665z" />
    <glyph glyph-name="umbrella"
      unicode="&#xEA29;"
      horiz-adv-x="256" d="M128 234.6665C74.9865 234.6665 32 191.68 32 138.6665H117.3335V53.3335C117.3335 47.4665 112.5335 42.6665 106.6665 42.6665S96 47.4665 96 53.3335H74.6665C74.6665 35.6265 88.96 21.3335 106.6665 21.3335S138.6665 35.6265 138.6665 53.3335V138.6665H224C224 191.68 181.0135 234.6665 128 234.6665z" />
    <glyph glyph-name="ubuntu"
      unicode="&#xEA2A;"
      horiz-adv-x="256" d="M234.6665 128C234.6665 69.12 186.88 21.3335 128 21.3335S21.3335 69.12 21.3335 128S69.12 234.6665 128 234.6665S234.6665 186.88 234.6665 128M152.96 173.44C159.1465 169.92 166.9335 172.0535 170.6665 178.1335C173.9735 184.2135 171.9465 192 165.76 195.6265C159.68 199.1465 151.7865 197.3335 148.2665 190.9335C144.7465 184.8535 146.88 176.96 152.96 173.44M126.72 90.6665C121.0665 90.6665 115.7335 91.84 111.04 94.08L102.08 78.08C109.5465 74.6665 117.8665 72.32 126.72 72.32C131.9465 72.32 136.8535 73.0665 141.6535 74.3465C142.5065 79.5735 145.4935 84.2665 150.4 87.04C155.3065 89.92 160.8535 90.1335 165.76 88.32C175.2535 97.6 181.3335 110.2935 182.2935 124.48L164.0535 124.6935C162.3465 105.6 146.3465 90.6665 126.72 90.6665M126.72 165.3335C146.3465 165.3335 162.3465 150.5065 164.0535 131.3065L182.2935 131.6265C181.3335 145.7065 175.2535 158.4 165.76 167.68C160.8535 165.8665 155.2 166.1865 150.4 168.96C145.4935 171.7335 142.5065 176.5335 141.6535 181.6535C136.8535 182.9335 131.9465 183.68 126.72 183.68C117.8665 183.68 109.5465 181.6535 102.08 177.92L111.04 161.92C115.7335 164.16 121.0665 165.3335 126.72 165.3335M89.28 128C89.28 140.6935 95.5735 151.8935 105.1735 158.6135L96 174.4C84.6935 166.8265 76.2665 155.4135 72.8535 141.9735C76.9065 138.6665 79.4665 133.6535 79.4665 128S76.9065 117.3335 72.8535 114.0265C76.2665 100.6935 84.6935 89.1735 96 81.7065L105.1735 97.3865C95.5735 104.1065 89.28 115.3065 89.28 128M152.96 82.56C146.88 79.04 144.7465 71.2535 148.2665 65.0665C151.7865 58.9865 159.68 56.8535 165.76 60.3735C171.9465 64 173.9735 71.7865 170.6665 77.8665C166.9335 84.0535 159.1465 86.08 152.96 82.56M61.44 140.8C54.4 140.8 48.64 135.04 48.64 128C48.64 120.96 54.4 115.2 61.44 115.2C68.5865 115.2 74.24 120.96 74.24 128C74.24 135.04 68.5865 140.8 61.44 140.8z" />
    <glyph glyph-name="twitter"
      unicode="&#xEA2B;"
      horiz-adv-x="256" d="M239.5735 192C231.36 188.2665 222.5065 185.8135 213.3335 184.64C222.72 190.2935 229.9735 199.2535 233.3865 210.0265C224.5335 204.6935 214.72 200.96 204.3735 198.8265C195.9465 208 184.1065 213.3335 170.6665 213.3335C145.6 213.3335 125.12 192.8535 125.12 167.5735C125.12 163.9465 125.5465 160.4265 126.2935 157.12C88.32 159.04 54.5065 177.28 32 204.9065C28.0535 198.1865 25.8135 190.2935 25.8135 181.9735C25.8135 166.08 33.8135 152 46.1865 144C38.6135 144 31.5735 146.1335 25.3865 149.3335V149.0135C25.3865 126.8265 41.1735 108.2665 62.08 104.1065C58.24 103.04 54.1865 102.5065 50.0265 102.5065C47.1465 102.5065 44.2665 102.8265 41.4935 103.36C47.2535 85.3335 64 71.8935 84.16 71.5735C68.5865 59.2 48.8535 51.9465 27.3065 51.9465A93.04 93.04 0 0 0 16.4265 52.5865C36.6935 39.5735 60.8 32 86.6135 32C170.6665 32 216.8535 101.76 216.8535 162.24C216.8535 164.2665 216.8535 166.1865 216.7465 168.2135C225.7065 174.6135 233.3865 182.72 239.5735 192z" />
    <glyph glyph-name="tune-vertical"
      unicode="&#xEA2C;"
      horiz-adv-x="256" d="M53.3335 224V128H32V106.6665H53.3335V32H74.6665V106.6665H96V128H74.6665V224M117.3335 224V170.6665H96V149.3335H117.3335V32H138.6665V149.3335H160V170.6665H138.6665V224M181.3335 224V106.6665H160V85.3335H181.3335V32H202.6665V85.3335H224V106.6665H202.6665V224" />
    <glyph glyph-name="tune"
      unicode="&#xEA2D;"
      horiz-adv-x="256" d="M32 74.6665V53.3335H96V74.6665H32M32 202.6665V181.3335H138.6665V202.6665H32M138.6665 32V53.3335H224V74.6665H138.6665V96H117.3335V32H138.6665M74.6665 160V138.6665H32V117.3335H74.6665V96H96V160H74.6665M224 117.3335V138.6665H117.3335V117.3335H224M160 160H181.3335V181.3335H224V202.6665H181.3335V224H160V160z" />
    <glyph glyph-name="tumblr"
      unicode="&#xEA2E;"
      horiz-adv-x="256" d="M170.6665 138.6665H138.6665V97.0665C138.6665 89.28 140.16 85.3335 150.4 85.3335H170.6665V53.3335S159.68 52.2665 148.2665 52.2665C120 52.2665 106.6665 69.3335 106.6665 88.5335V138.6665H85.3335V168.5335C111.04 170.6665 113.28 190.2935 115.2 202.6665H138.6665V170.6665H170.6665M213.3335 234.6665H42.6665A21.26 21.26 0 0 1 21.3335 213.3335V42.6665C21.3335 30.9335 30.9335 21.3335 42.6665 21.3335H213.3335C225.0665 21.3335 234.6665 30.9335 234.6665 42.6665V213.3335C234.6665 225.1735 225.0665 234.6665 213.3335 234.6665z" />
    <glyph glyph-name="truck"
      unicode="&#xEA2F;"
      horiz-adv-x="256" d="M192 58.6665C183.1465 58.6665 176 65.8135 176 74.6665S183.1465 90.6665 192 90.6665S208 83.52 208 74.6665S200.8535 58.6665 192 58.6665M208 154.6665L228.9065 128H181.3335V154.6665M64 58.6665C55.1465 58.6665 48 65.8135 48 74.6665S55.1465 90.6665 64 90.6665S80 83.52 80 74.6665S72.8535 58.6665 64 58.6665M213.3335 170.6665H181.3335V213.3335H32A21.26 21.26 0 0 1 10.6665 192V74.6665H32C32 56.96 46.2935 42.6665 64 42.6665S96 56.96 96 74.6665H160C160 56.96 174.2935 42.6665 192 42.6665S224 56.96 224 74.6665H245.3335V128L213.3335 170.6665z" />
    <glyph glyph-name="trophy-outline"
      unicode="&#xEA30;"
      horiz-adv-x="256" d="M21.3335 234.6665V138.6665C21.3335 128 32 117.3335 42.6665 117.3335H66.1335C70.4 96 84.2665 77.8665 117.3335 74.6665V52.2665C93.8665 50.1335 85.3335 38.4 85.3335 24.5335V21.3335H170.6665V24.5335C170.6665 38.4 162.1335 50.1335 138.6665 52.2665V74.6665C171.7335 77.8665 185.6 96 189.8665 117.3335H213.3335C224 117.3335 234.6665 128 234.6665 138.6665V234.6665H192C182.4 234.6665 170.6665 224 170.6665 213.3335H85.3335C85.3335 224 73.6 234.6665 64 234.6665H21.3335M42.6665 213.3335H64V138.6665H42.6665V213.3335M192 213.3335H213.3335V138.6665H192V213.3335M85.3335 192H170.6665V133.3335C170.6665 112.7465 164.48 96 128 96C91.6265 96 85.3335 112.7465 85.3335 133.3335V192z" />
    <glyph glyph-name="trophy"
      unicode="&#xEA31;"
      horiz-adv-x="256" d="M215.4665 234.6665H192C182.4 234.6665 170.6665 224 170.6665 213.3335H85.3335C85.3335 224 73.6 234.6665 64 234.6665H21.3335V138.6665C21.3335 128 32 117.3335 42.6665 117.3335H66.1335C70.4 96 84.2665 77.8665 117.3335 74.6665V52.2665C93.8665 50.1335 85.3335 38.4 85.3335 24.5335V21.3335H170.6665V24.5335C170.6665 38.4 162.1335 50.1335 138.6665 52.2665V74.6665C171.7335 77.8665 185.6 96 189.8665 117.3335H213.3335C224 117.3335 234.6665 128 234.6665 138.6665V234.6665H215.4665M42.6665 138.6665V213.3335H64V138.6665H42.6665M213.3335 138.6665H192V213.3335H213.3335V138.6665z" />
    <glyph glyph-name="triangle-outline"
      unicode="&#xEA32;"
      horiz-adv-x="256" d="M128 234.6665L10.6665 32H245.3335M128 192L208.32 53.3335H47.68" />
    <glyph glyph-name="triangle"
      unicode="&#xEA33;"
      horiz-adv-x="256" d="M10.6665 32H245.3335L128 234.6665" />
    <glyph glyph-name="trending-up"
      unicode="&#xEA34;"
      horiz-adv-x="256" d="M170.6665 192L195.0935 167.5735L143.04 115.52L100.3735 158.1865L21.3335 79.04L36.3735 64L100.3735 128L143.04 85.3335L210.24 152.4265L234.6665 128V192H170.6665z" />
    <glyph glyph-name="trending-neutral"
      unicode="&#xEA35;"
      horiz-adv-x="256" d="M234.6665 128L192 170.6665V138.6665H32V117.3335H192V85.3335L234.6665 128z" />
    <glyph glyph-name="trending-down"
      unicode="&#xEA36;"
      horiz-adv-x="256" d="M170.6665 64L195.0935 88.4265L143.04 140.48L100.3735 97.8135L21.3335 176.96L36.3735 192L100.3735 128L143.04 170.6665L210.24 103.5735L234.6665 128V64H170.6665z" />
    <glyph glyph-name="tree"
      unicode="&#xEA37;"
      horiz-adv-x="256" d="M117.3335 32V77.44C112.32 75.6265 106.9865 74.6665 101.3335 74.6665C74.6665 74.6665 53.3335 96 53.3335 122.6665C53.3335 136.2135 58.6665 148.3735 67.84 157.12A48.145 48.145 0 0 0 64 176C64 202.6665 85.3335 224 112 224C128.64 224 143.36 215.4665 152 202.6665H154.6665C187.0935 202.6665 213.3335 176.4265 213.3335 144S187.0935 85.3335 154.6665 85.3335C149.3335 85.3335 144 86.08 138.6665 87.5735V32H117.3335z" />
    <glyph glyph-name="translate"
      unicode="&#xEA38;"
      horiz-adv-x="256" d="M137.28 95.2535L110.1865 122.0265L110.5065 122.3465C129.0665 143.04 142.2935 166.8265 150.08 192H181.3335V213.3335H106.6665V234.6665H85.3335V213.3335H10.6665V192H129.8135C122.6665 171.52 111.36 152 96 134.9335C86.08 145.92 77.8665 157.9735 71.36 170.6665H50.0265C57.8135 153.28 68.48 136.8535 81.8135 122.0265L27.52 68.48L42.6665 53.3335L96 106.6665L129.1735 73.4935L137.28 95.2535M197.3335 149.3335H176L128 21.3335H149.3335L161.28 53.3335H211.9465L224 21.3335H245.3335L197.3335 149.3335M169.3865 74.6665L186.6665 120.8535L203.9465 74.6665H169.3865z" />
    <glyph glyph-name="transfer"
      unicode="&#xEA39;"
      horiz-adv-x="256" d="M32 170.6665H53.3335V85.3335H32V170.6665M74.6665 170.6665H96V85.3335H74.6665V170.6665M117.3335 170.6665H138.6665V85.3335H117.3335V170.6665M160 50.6665V205.3335L237.3335 128L160 50.6665z" />
    <glyph glyph-name="train"
      unicode="&#xEA3A;"
      horiz-adv-x="256" d="M192 149.3335H64V202.6665H192M128 74.6665C116.16 74.6665 106.6665 84.2665 106.6665 96A21.26 21.26 0 0 0 128 117.3335C139.7335 117.3335 149.3335 107.7335 149.3335 96S139.7335 74.6665 128 74.6665M42.6665 90.6665C42.6665 70.08 59.4135 53.3335 80 53.3335L64 37.3335V32H192V37.3335L176 53.3335C196.5865 53.3335 213.3335 70.08 213.3335 90.6665V202.6665C213.3335 240 175.1465 245.3335 128 245.3335S42.6665 240 42.6665 202.6665V90.6665z" />
    <glyph glyph-name="traffic-light"
      unicode="&#xEA3B;"
      horiz-adv-x="256" d="M128 160C116.2665 160 106.6665 169.6 106.6665 181.3335C106.6665 193.1735 116.2665 202.6665 128 202.6665A21.26 21.26 0 0 0 149.3335 181.3335C149.3335 169.6 139.7335 160 128 160M128 106.6665C116.2665 106.6665 106.6665 116.2665 106.6665 128C106.6665 139.84 116.2665 149.3335 128 149.3335A21.26 21.26 0 0 0 149.3335 128C149.3335 116.2665 139.7335 106.6665 128 106.6665M128 53.3335C116.2665 53.3335 106.6665 62.9335 106.6665 74.6665C106.6665 86.5065 116.2665 96 128 96A21.26 21.26 0 0 0 149.3335 74.6665C149.3335 62.9335 139.7335 53.3335 128 53.3335M213.3335 149.3335H181.3335V161.4935C199.68 166.2935 213.3335 182.8265 213.3335 202.6665H181.3335V213.3335C181.3335 219.2 176.5335 224 170.6665 224H85.3335C79.4665 224 74.6665 219.2 74.6665 213.3335V202.6665H42.6665C42.6665 182.8265 56.32 166.2935 74.6665 161.4935V149.3335H42.6665C42.6665 129.4935 56.32 112.96 74.6665 108.16V96H42.6665C42.6665 76.16 56.32 59.6265 74.6665 54.8265V42.6665C74.6665 36.8 79.4665 32 85.3335 32H170.6665C176.5335 32 181.3335 36.8 181.3335 42.6665V54.8265C199.68 59.6265 213.3335 76.16 213.3335 96H181.3335V108.16C199.68 112.96 213.3335 129.4935 213.3335 149.3335z" />
    <glyph glyph-name="tooltip-outline"
      unicode="&#xEA3C;"
      horiz-adv-x="256" d="M42.6665 234.6665H213.3335C225.0665 234.6665 234.6665 225.0665 234.6665 213.3335V85.3335C234.6665 73.6 225.0665 64 213.3335 64H170.6665L128 21.3335L85.3335 64H42.6665C30.9335 64 21.3335 73.6 21.3335 85.3335V213.3335C21.3335 225.0665 30.9335 234.6665 42.6665 234.6665M42.6665 213.3335V85.3335H94.1865L128 51.52L161.8135 85.3335H213.3335V213.3335H42.6665z" />
    <glyph glyph-name="tooltip"
      unicode="&#xEA3D;"
      horiz-adv-x="256" d="M42.6665 234.6665H213.3335C225.0665 234.6665 234.6665 225.0665 234.6665 213.3335V85.3335C234.6665 73.6 225.0665 64 213.3335 64H170.6665L128 21.3335L85.3335 64H42.6665C30.9335 64 21.3335 73.6 21.3335 85.3335V213.3335C21.3335 225.0665 30.9335 234.6665 42.6665 234.6665z" />
    <glyph glyph-name="timetable"
      unicode="&#xEA3E;"
      horiz-adv-x="256" d="M149.3335 128H165.3335V97.92L191.36 82.88L183.36 69.0135L149.3335 88.64V128M42.6665 234.6665H192C203.7335 234.6665 213.3335 225.0665 213.3335 213.3335V148.2665C226.56 134.8265 234.6665 116.3735 234.6665 96C234.6665 54.72 201.28 21.3335 160 21.3335C139.6265 21.3335 121.1735 29.44 107.7335 42.6665H42.6665C30.9335 42.6665 21.3335 52.2665 21.3335 64V213.3335C21.3335 225.0665 30.9335 234.6665 42.6665 234.6665M42.6665 96V64H92.48C87.8935 73.7065 85.3335 84.5865 85.3335 96H42.6665M42.6665 170.6665H106.6665V202.6665H42.6665V170.6665M192 170.6665V202.6665H128V170.6665H192M42.6665 117.3335H88.4265C92.0535 129.6 98.7735 140.5865 107.7335 149.3335H42.6665V117.3335M160 147.7335C131.4135 147.7335 108.2665 124.5865 108.2665 96S131.4135 44.2665 160 44.2665S211.7335 67.4135 211.7335 96S188.5865 147.7335 160 147.7335z" />
    <glyph glyph-name="timer-sand-empty"
      unicode="&#xEA3F;"
      horiz-adv-x="256" d="M213.3335 234.6665V213.3335H192V166.2935L153.7065 128L192 89.7065V42.6665H213.3335V21.3335H42.6665V42.6665H64V89.7065L102.2935 128L64 166.2935V213.3335H42.6665V234.6665H213.3335M170.6665 80.96L138.6665 112.96V143.04L170.6665 175.04V213.3335H85.3335V175.04L117.3335 143.04V112.96L85.3335 80.96V42.6665H170.6665V80.96z" />
    <glyph glyph-name="timer-sand"
      unicode="&#xEA40;"
      horiz-adv-x="256" d="M213.3335 234.6665V213.3335H192V166.2935L153.7065 128L192 89.7065V42.6665H213.3335V21.3335H42.6665V42.6665H64V89.7065L102.2935 128L64 166.2935V213.3335H42.6665V234.6665H213.3335M170.6665 80.96L138.6665 112.96V143.04L170.6665 175.04V213.3335H85.3335V175.04L117.3335 143.04V112.96L85.3335 80.96V74.6665H106.6665L128 96L149.3335 74.6665H170.6665V80.96M128 160L106.6665 181.3335H149.3335L128 160z" />
    <glyph glyph-name="timer-off"
      unicode="&#xEA41;"
      horiz-adv-x="256" d="M128 42.6665C86.72 42.6665 53.3335 76.0535 53.3335 117.3335C53.3335 130.9865 57.0665 144 63.4665 154.6665L165.3335 52.9065C154.6665 46.4 141.6535 42.6665 128 42.6665M32 213.3335L18.6665 199.7865L48 170.3465C37.8665 155.2 32 136.96 32 117.3335C32 64.32 74.9865 21.3335 128 21.3335C147.6265 21.3335 165.8665 27.2 181.3335 37.3335L208 10.6665L221.3335 24.2135L139.0935 106.6665L32 213.3335M117.3335 155.3065L138.6665 133.9735V170.6665H117.3335M160 245.3335H96V224H160M203.0935 207.4665L187.9465 192.32C171.4135 205.44 150.6135 213.3335 128 213.3335C108.48 213.3335 90.3465 207.4665 75.2 197.3335L90.6665 181.9735C101.6535 188.2665 114.4535 192 128 192C169.28 192 202.6665 158.6135 202.6665 117.3335C202.6665 103.7865 198.9335 90.9865 192.64 80L208 64.64C218.1335 79.68 224 97.8135 224 117.3335C224 139.9465 216.1065 160.7465 202.9865 177.1735L218.1335 192.32L203.0935 207.4665z" />
    <glyph glyph-name="timer"
      unicode="&#xEA42;"
      horiz-adv-x="256" d="M128 42.6665C86.72 42.6665 53.3335 76.0535 53.3335 117.3335S86.72 192 128 192S202.6665 158.6135 202.6665 117.3335S169.28 42.6665 128 42.6665M202.9865 177.1735L218.1335 192.32C213.3335 197.76 208.5335 202.6665 203.0935 207.36L187.9465 192C171.4135 205.44 150.6135 213.3335 128 213.3335C74.9865 213.3335 32 170.3465 32 117.3335S74.9865 21.3335 128 21.3335C181.3335 21.3335 224 64.32 224 117.3335C224 139.9465 216.1065 160.7465 202.9865 177.1735M117.3335 106.6665H138.6665V170.6665H117.3335M160 245.3335H96V224H160V245.3335z" />
    <glyph glyph-name="timelapse"
      unicode="&#xEA43;"
      horiz-adv-x="256" d="M128 42.6665C80.8535 42.6665 42.6665 80.8535 42.6665 128S80.8535 213.3335 128 213.3335S213.3335 175.1465 213.3335 128S175.1465 42.6665 128 42.6665M128 234.6665C69.12 234.6665 21.3335 186.88 21.3335 128S69.12 21.3335 128 21.3335S234.6665 69.12 234.6665 128S186.88 234.6665 128 234.6665M173.2265 173.2265C160.7465 185.8135 144.32 192 128 192V128L82.7735 82.7735C107.7335 57.8135 148.2665 57.8135 173.2265 82.7735C198.2935 107.7335 198.2935 148.2665 173.2265 173.2265z" />
    <glyph glyph-name="thumbs-up-down"
      unicode="&#xEA44;"
      horiz-adv-x="256" d="M240 144H168C161.3865 144 155.7335 139.9465 153.28 134.2935L129.1735 77.8665C128.4265 76.0535 128 74.0265 128 72V58.6665C128 52.8 132.8 48 138.6665 48H193.92L186.6665 14.08V11.52C186.6665 8.2135 188.0535 5.3335 190.1865 2.9865L198.6135 -5.3335L251.3065 47.36C254.1865 50.24 256 54.2935 256 58.6665V128C256 136.8535 248.8535 144 240 144M128 186.6665C128 192.5335 123.2 197.3335 117.3335 197.3335H62.08L69.3335 231.2535V233.7065C69.3335 237.0135 67.9465 240 65.8135 242.24L57.3865 250.6665L4.6935 197.9735C1.8135 195.0935 0 191.04 0 186.6665V117.3335C0 108.48 7.1465 101.3335 16 101.3335H88C94.6135 101.3335 100.2665 105.3865 102.72 111.04L126.8265 167.4665C127.5735 169.28 128 171.3065 128 173.3335V186.6665000000001z" />
    <glyph glyph-name="thumb-up-outline"
      unicode="&#xEA45;"
      horiz-adv-x="256" d="M53.3335 160V32H10.6665V160H53.3335M96 32C84.2665 32 74.6665 41.6 74.6665 53.3335V160C74.6665 165.8665 77.0135 171.2 80.96 175.04L151.1465 245.3335L162.4535 234.0265C165.3335 231.1465 167.1465 227.2 167.1465 222.8265L166.8265 219.4135L156.6935 170.6665H224C235.84 170.6665 245.3335 161.0665 245.3335 149.3335V128C245.3335 125.2265 244.8 122.6665 243.84 120.2135L211.6265 45.0135C208.4265 37.3335 200.8535 32 192 32H96M96 53.3335H192.32L224 128V149.3335H130.24L142.2935 206.08L96 159.68V53.3335z" />
    <glyph glyph-name="thumb-up"
      unicode="&#xEA46;"
      horiz-adv-x="256" d="M245.3335 149.3335C245.3335 161.1735 235.7335 170.6665 224 170.6665H156.5865L166.8265 219.4135C167.04 220.48 167.1465 221.6535 167.1465 222.8265C167.1465 227.2 165.3335 231.2535 162.4535 234.1335L151.1465 245.3335L80.96 175.1465C77.0135 171.2 74.6665 165.8665 74.6665 160V53.3335C74.6665 41.6 84.2665 32 96 32H192C200.8535 32 208.4265 37.3335 211.6265 45.0135L243.84 120.2135C244.8 122.6665 245.3335 125.2265 245.3335 128V149.3335M10.6665 32H53.3335V160H10.6665V32z" />
    <glyph glyph-name="thumb-down-outline"
      unicode="&#xEA47;"
      horiz-adv-x="256" d="M202.6665 96V224H245.3335V96H202.6665M160 224C171.7335 224 181.3335 214.4 181.3335 202.6665V96C181.3335 90.1335 178.9865 84.8 175.04 80.96L104.8535 10.6665L93.5465 21.9735C90.6665 24.8535 88.8535 28.8 88.8535 33.28L89.1735 36.5865L99.3065 85.3335H32C20.16 85.3335 10.6665 94.9335 10.6665 106.6665V128C10.6665 130.7735 11.2 133.3335 12.16 135.7865L44.3735 210.9865C47.5735 218.6665 55.1465 224 64 224H160M160 202.6665H63.68L32 128V106.6665H125.6535L113.6 49.92L160 96.32V202.6665z" />
    <glyph glyph-name="thumb-down"
      unicode="&#xEA48;"
      horiz-adv-x="256" d="M202.6665 96H245.3335V224H202.6665M160 224H64C55.1465 224 47.5735 218.6665 44.3735 210.9865L12.16 135.7865C11.2 133.3335 10.6665 130.7735 10.6665 128V106.6665C10.6665 94.9335 20.2665 85.3335 32 85.3335H99.3065L89.1735 36.5865A16.561 16.561 0 0 1 88.8535 33.28C88.8535 28.8 90.6665 24.8535 93.5465 21.9735L104.8535 10.6665L175.04 80.96C178.9865 84.8 181.3335 90.1335 181.3335 96V202.6665C181.3335 214.5065 171.7335 224 160 224z" />
    <glyph glyph-name="texture"
      unicode="&#xEA49;"
      horiz-adv-x="256" d="M99.0935 32H129.28L224 126.72V156.9065M202.6665 32C208.5335 32 213.8665 34.3465 217.7065 38.2935C221.6535 42.1335 224 47.4665 224 53.3335V74.6665L181.3335 32M53.3335 224C41.6 224 32 214.4 32 202.6665V181.3335L74.6665 224M126.72 224L32 129.28V99.0935L156.9065 224M208 223.1465L32.8535 48C33.8135 44.2665 35.7335 40.96 38.2935 38.2935C40.96 35.7335 44.2665 33.8135 48 32.8535L223.2535 208C221.2265 215.4665 215.4665 221.2265 208 223.1465z" />
    <glyph glyph-name="textbox"
      unicode="&#xEA4A;"
      horiz-adv-x="256" d="M181.3335 181.3335H234.6665V74.6665H181.3335V53.3335C181.3335 47.4665 186.1335 42.6665 192 42.6665H213.3335V21.3335H186.6665C180.8 21.3335 170.6665 26.1335 170.6665 32C170.6665 26.1335 160.5335 21.3335 154.6665 21.3335H128V42.6665H149.3335C155.2 42.6665 160 47.4665 160 53.3335V202.6665C160 208.5335 155.2 213.3335 149.3335 213.3335H128V234.6665H154.6665C160.5335 234.6665 170.6665 229.8665 170.6665 224C170.6665 229.8665 180.8 234.6665 186.6665 234.6665H213.3335V213.3335H192C186.1335 213.3335 181.3335 208.5335 181.3335 202.6665V181.3335M21.3335 181.3335H138.6665V160H42.6665V96H138.6665V74.6665H21.3335V181.3335M213.3335 96V160H181.3335V96H213.3335z" />
    <glyph glyph-name="terrain"
      unicode="&#xEA4B;"
      horiz-adv-x="256" d="M149.3335 192L109.3335 138.6665L139.7335 98.1335L122.6665 85.3335C104.64 109.3335 74.6665 149.3335 74.6665 149.3335L10.6665 64H245.3335L149.3335 192z" />
    <glyph glyph-name="tennis"
      unicode="&#xEA4C;"
      horiz-adv-x="256" d="M128 234.6665C154.6665 234.6665 178.6665 225.0665 197.3335 209.0665C174.5065 189.5465 160 160.4265 160 128S174.5065 66.4535 197.3335 46.9335C178.6665 30.9335 154.6665 21.3335 128 21.3335S77.3335 30.9335 58.6665 46.9335C81.4935 66.4535 96 95.5735 96 128S81.4935 189.5465 58.6665 209.0665C77.3335 225.0665 101.3335 234.6665 128 234.6665M234.6665 128C234.6665 103.2535 226.24 80.5335 212.0535 62.4C193.28 78.08 181.3335 101.6535 181.3335 128S193.28 177.92 212.0535 193.6C226.24 175.4665 234.6665 152.7465 234.6665 128M21.3335 128C21.3335 152.7465 29.76 175.4665 43.9465 193.6C62.72 177.92 74.6665 154.3465 74.6665 128S62.72 78.08 43.9465 62.4C29.76 80.5335 21.3335 103.2535 21.3335 128z" />
    <glyph glyph-name="temperature-kelvin"
      unicode="&#xEA4D;"
      horiz-adv-x="256" d="M74.6665 202.6665H106.6665V138.6665L160 202.6665H202.6665L148.0535 141.0135L202.6665 42.6665H164.0535L125.44 115.52L106.6665 94.4V42.6665H74.6665V202.6665z" />
    <glyph glyph-name="temperature-fahrenheit"
      unicode="&#xEA4E;"
      horiz-adv-x="256" d="M117.3335 42.6665V202.6665H213.3335V170.6665H149.3335V138.6665H202.6665V106.6665H149.3335V42.6665H117.3335M64 224C81.7065 224 96 209.7065 96 192S81.7065 160 64 160S32 174.2935 32 192S46.2935 224 64 224M64 202.6665C58.1335 202.6665 53.3335 197.8665 53.3335 192S58.1335 181.3335 64 181.3335S74.6665 186.1335 74.6665 192S69.8665 202.6665 64 202.6665z" />
    <glyph glyph-name="temperature-celsius"
      unicode="&#xEA4F;"
      horiz-adv-x="256" d="M176 202.6665C192.5335 202.6665 208 197.6535 220.6935 189.0135L208.32 158.1865C199.7865 165.9735 188.48 170.6665 176 170.6665C149.3335 170.6665 128 149.3335 128 122.6665S149.3335 74.6665 176 74.6665C186.9865 74.6665 197.0135 78.2935 205.12 84.48L217.28 54.08C205.2265 46.8265 191.1465 42.6665 176 42.6665C131.84 42.6665 96 78.5065 96 122.6665S131.84 202.6665 176 202.6665M64 224C81.7065 224 96 209.7065 96 192S81.7065 160 64 160S32 174.2935 32 192S46.2935 224 64 224M64 202.6665C58.1335 202.6665 53.3335 197.8665 53.3335 192S58.1335 181.3335 64 181.3335S74.6665 186.1335 74.6665 192S69.8665 202.6665 64 202.6665z" />
    <glyph glyph-name="teamviewer"
      unicode="&#xEA50;"
      horiz-adv-x="256" d="M202.6665 224C214.4 224 224 214.4 224 202.6665V53.3335C224 41.4935 214.4 32 202.6665 32H53.3335C41.6 32 32 41.6 32 53.3335V202.6665C32 214.4 41.6 224 53.3335 224H202.6665M128 202.6665C86.72 202.6665 53.3335 169.28 53.3335 128S86.72 53.3335 128 53.3335S202.6665 86.72 202.6665 128S169.28 202.6665 128 202.6665M74.6665 128L106.6665 160V138.6665H149.3335V160L181.3335 128L149.3335 96V117.3335H106.6665V96L74.6665 128z" />
    <glyph glyph-name="taxi"
      unicode="&#xEA51;"
      horiz-adv-x="256" d="M53.3335 138.6665L69.3335 186.6665H186.6665L202.6665 138.6665M186.6665 85.3335C177.8135 85.3335 170.6665 92.48 170.6665 101.3335S177.8135 117.3335 186.6665 117.3335S202.6665 110.1865 202.6665 101.3335S195.52 85.3335 186.6665 85.3335M69.3335 85.3335C60.48 85.3335 53.3335 92.48 53.3335 101.3335S60.48 117.3335 69.3335 117.3335S85.3335 110.1865 85.3335 101.3335S78.1865 85.3335 69.3335 85.3335M201.8135 192C199.68 198.1865 193.7065 202.6665 186.6665 202.6665H160V224H96V202.6665H69.3335C62.2935 202.6665 56.32 198.1865 54.1865 192L32 128V42.6665C32 36.8 36.8 32 42.6665 32H53.3335C59.2 32 64 36.8 64 42.6665V53.3335H192V42.6665C192 36.8 196.8 32 202.6665 32H213.3335C219.2 32 224 36.8 224 42.6665V128L201.8135 192z" />
    <glyph glyph-name="tag-outline"
      unicode="&#xEA52;"
      horiz-adv-x="256" d="M58.6665 181.3335C67.52 181.3335 74.6665 188.48 74.6665 197.3335S67.52 213.3335 58.6665 213.3335S42.6665 206.1865 42.6665 197.3335S49.8135 181.3335 58.6665 181.3335M228.3735 132.48C232.2135 128.64 234.6665 123.3065 234.6665 117.3335C234.6665 111.4665 232.32 106.1335 228.3735 102.2935L153.7065 27.6265C149.8665 23.7865 144.5335 21.3335 138.6665 21.3335C132.8 21.3335 127.4665 23.7865 123.52 27.6265L27.6265 123.6265C23.68 127.4665 21.3335 132.8 21.3335 138.6665V213.3335A21.26 21.26 0 0 0 42.6665 234.6665H117.3335C123.2 234.6665 128.5335 232.32 132.3735 228.48L228.3735 132.48M138.6665 42.6665L213.3335 117.3335L122.6665 208L48 133.3335L138.6665 42.6665z" />
    <glyph glyph-name="tag-multiple"
      unicode="&#xEA53;"
      horiz-adv-x="256" d="M58.6665 160C67.52 160 74.6665 167.1465 74.6665 176S67.52 192 58.6665 192S42.6665 184.8535 42.6665 176S49.8135 160 58.6665 160M185.7065 132.48C189.5465 128.64 192 123.3065 192 117.3335C192 111.4665 189.6535 106.1335 185.7065 102.2935L132.3735 48.96C128.5335 45.12 123.2 42.6665 117.3335 42.6665C111.4665 42.6665 106.1335 45.0135 102.1865 48.96L27.6265 123.52C23.68 127.4665 21.3335 132.8 21.3335 138.6665V192A21.26 21.26 0 0 0 42.6665 213.3335H96C101.8665 213.3335 107.2 210.9865 111.04 207.1465L185.7065 132.48M144.4265 195.0935L155.0935 205.76L228.3735 132.48C232.32 128.64 234.6665 123.2 234.6665 117.3335C234.6665 111.4665 232.32 106.1335 228.48 102.2935L171.0935 44.9065L160.4265 55.5735L221.3335 117.3335L144.4265 195.0935z" />
    <glyph glyph-name="tag"
      unicode="&#xEA54;"
      horiz-adv-x="256" d="M58.6665 181.3335C49.8135 181.3335 42.6665 188.48 42.6665 197.3335S49.8135 213.3335 58.6665 213.3335S74.6665 206.1865 74.6665 197.3335S67.52 181.3335 58.6665 181.3335M228.3735 132.48L132.3735 228.48C128.5335 232.32 123.2 234.6665 117.3335 234.6665H42.6665A21.26 21.26 0 0 1 21.3335 213.3335V138.6665C21.3335 132.8 23.68 127.4665 27.6265 123.6265L123.52 27.6265C127.4665 23.7865 132.8 21.3335 138.6665 21.3335C144.5335 21.3335 149.8665 23.7865 153.7065 27.6265L228.3735 102.2935C232.32 106.1335 234.6665 111.4665 234.6665 117.3335C234.6665 123.3065 232.2135 128.64 228.3735 132.48z" />
    <glyph glyph-name="tablet-ipad"
      unicode="&#xEA55;"
      horiz-adv-x="256" d="M202.6665 53.3335H42.6665V224H202.6665M122.6665 10.6665C113.8135 10.6665 106.6665 17.8135 106.6665 26.6665S113.8135 42.6665 122.6665 42.6665S138.6665 35.52 138.6665 26.6665S131.52 10.6665 122.6665 10.6665M197.3335 256H48C33.28 256 21.3335 244.0535 21.3335 229.3335V26.6665C21.3335 11.9465 33.28 0 48 0H197.3335C212.0535 0 224 11.9465 224 26.6665V229.3335C224 244.0535 212.0535 256 197.3335 256z" />
    <glyph glyph-name="tablet"
      unicode="&#xEA56;"
      horiz-adv-x="256" d="M202.6665 64H53.3335V192H202.6665M224 213.3335H32A21.26 21.26 0 0 1 10.6665 192V64C10.6665 52.2665 20.2665 42.6665 32 42.6665H224C235.7335 42.6665 245.3335 52.2665 245.3335 64V192C245.3335 203.84 235.7335 213.3335 224 213.3335z" />
    <glyph glyph-name="table-edit"
      unicode="&#xEA57;"
      horiz-adv-x="256" d="M231.4665 113.6L220.8 102.9335L198.9335 124.8L209.6 135.4665A5.671 5.671 0 0 0 217.8135 135.4665L231.4665 121.8135A5.671 5.671 0 0 0 231.4665 113.6M128 53.9735L192.7465 118.6135L214.6135 96.7465L149.9735 32H128V53.9735M42.6665 234.6665H192C203.7335 234.6665 213.3335 225.0665 213.3335 213.3335V168.8535L172.48 128H128V83.52L108.48 64H42.6665C30.9335 64 21.3335 73.6 21.3335 85.3335V213.3335C21.3335 225.0665 30.9335 234.6665 42.6665 234.6665M42.6665 192V149.3335H106.6665V192H42.6665M128 192V149.3335H192V192H128M42.6665 128V85.3335H106.6665V128H42.6665z" />
    <glyph glyph-name="source-branch"
      unicode="&#xEA58;"
      horiz-adv-x="256" d="M138.6665 106.6665C102.8265 106.6665 91.0935 92.2665 87.2535 82.7735C98.6665 77.8665 106.6665 66.56 106.6665 53.3335C106.6665 35.6265 92.3735 21.3335 74.6665 21.3335S42.6665 35.6265 42.6665 53.3335A31.896 31.896 0 0 0 64 83.52V172.48A31.896 31.896 0 0 0 42.6665 202.6665C42.6665 220.3735 56.96 234.6665 74.6665 234.6665S106.6665 220.3735 106.6665 202.6665A31.896 31.896 0 0 0 85.3335 172.48V116.0535C94.72 122.9865 108.3735 128 128 128C156.48 128 165.9735 142.2935 169.0665 151.7865C157.5465 156.5865 149.3335 168 149.3335 181.3335C149.3335 199.04 163.6265 213.3335 181.3335 213.3335S213.3335 199.04 213.3335 181.3335C213.3335 167.04 203.9465 154.6665 191.04 150.8265C188.2665 135.5735 177.92 106.6665 138.6665 106.6665M74.6665 64C68.8 64 64 59.2 64 53.3335S68.8 42.6665 74.6665 42.6665S85.3335 47.4665 85.3335 53.3335S80.5335 64 74.6665 64M74.6665 213.3335C68.8 213.3335 64 208.5335 64 202.6665S68.8 192 74.6665 192S85.3335 196.8 85.3335 202.6665S80.5335 213.3335 74.6665 213.3335M181.3335 192C175.4665 192 170.6665 187.2 170.6665 181.3335S175.4665 170.6665 181.3335 170.6665S192 175.4665 192 181.3335S187.2 192 181.3335 192z" />
    <glyph glyph-name="table"
      unicode="&#xEA59;"
      horiz-adv-x="256" d="M53.3335 213.3335H202.6665C214.4 213.3335 224 203.7335 224 192V64C224 52.2665 214.4 42.6665 202.6665 42.6665H53.3335C41.6 42.6665 32 52.2665 32 64V192C32 203.7335 41.6 213.3335 53.3335 213.3335M53.3335 170.6665V128H117.3335V170.6665H53.3335M138.6665 170.6665V128H202.6665V170.6665H138.6665M53.3335 106.6665V64H117.3335V106.6665H53.3335M138.6665 106.6665V64H202.6665V106.6665H138.6665z" />
    <glyph glyph-name="sync-off"
      unicode="&#xEA5A;"
      horiz-adv-x="256" d="M213.3335 213.3335H149.3335V149.3335L173.2265 173.2265C184.7465 161.6 192 145.7065 192 128C192 117.3335 189.3335 107.3065 184.7465 98.4535L200.32 82.88C208.5335 96 213.3335 111.36 213.3335 128C213.3335 151.5735 203.6265 172.8 188.16 188.16L213.3335 213.3335M30.5065 198.2935L55.68 173.12C47.4665 160 42.6665 144.64 42.6665 128C42.6665 104.4265 52.3735 83.2 67.84 67.84L42.6665 42.6665H106.6665V106.6665L82.7735 82.7735C71.2535 94.4 64 110.2935 64 128C64 138.6665 66.6665 148.6935 71.2535 157.5465L157.44 71.36C154.6665 69.9735 152.1065 68.6935 149.3335 67.7335V45.44C157.76 47.68 165.76 51.2 173.0135 55.68L198.1865 30.5065L211.7335 44.0535L44.16 211.84L30.5065 198.2935M106.6665 188.2665V210.56C98.1335 208.32 90.1335 204.8 82.88 200.32L98.4535 184.7465C101.3335 186.0265 103.7865 187.3065 106.6665 188.2665z" />
    <glyph glyph-name="sync-alert"
      unicode="&#xEA5B;"
      horiz-adv-x="256" d="M117.3335 117.3335H138.6665V181.3335H117.3335M224 213.3335H160V149.3335L183.8935 173.2265C195.4135 161.6 202.6665 145.7065 202.6665 128C202.6665 100.16 184.8535 76.48 160 67.7335V45.44C196.8 54.9335 224 88.2135 224 128C224 151.5735 214.2935 172.8 198.8265 188.16M117.3335 74.6665H138.6665V96H117.3335M32 128C32 104.4265 41.7065 83.2 57.1735 67.84L32 42.6665H96V106.6665L72.1065 82.7735C60.5865 94.4 53.3335 110.2935 53.3335 128C53.3335 155.84 71.1465 179.52 96 188.2665V210.56C59.2 201.0665 32 167.7865 32 128z" />
    <glyph glyph-name="sync"
      unicode="&#xEA5C;"
      horiz-adv-x="256" d="M128 64C92.6935 64 64 92.6935 64 128C64 138.6665 66.6665 149.0135 71.4665 157.8665L55.8935 173.44C47.5735 160.32 42.6665 144.7465 42.6665 128C42.6665 80.8535 80.8535 42.6665 128 42.6665V10.6665L170.6665 53.3335L128 96M128 213.3335V245.3335L85.3335 202.6665L128 160V192C163.3065 192 192 163.3065 192 128C192 117.3335 189.3335 106.9865 184.5335 98.1335L200.1065 82.56C208.4265 95.68 213.3335 111.2535 213.3335 128C213.3335 175.1465 175.1465 213.3335 128 213.3335z" />
    <glyph glyph-name="swap-vertical"
      unicode="&#xEA5D;"
      horiz-adv-x="256" d="M96 224L53.3335 181.3335H85.3335V106.6665H106.6665V181.3335H138.6665M170.6665 74.6665V149.3335H149.3335V74.6665H117.3335L160 32L202.6665 74.6665H170.6665z" />
    <glyph glyph-name="swap-horizontal"
      unicode="&#xEA5E;"
      horiz-adv-x="256" d="M224 160L181.3335 202.6665V170.6665H106.6665V149.3335H181.3335V117.3335M74.6665 138.6665L32 96L74.6665 53.3335V85.3335H149.3335V106.6665H74.6665V138.6665z" />
    <glyph glyph-name="sunglasses"
      unicode="&#xEA5F;"
      horiz-adv-x="256" d="M74.6665 74.6665H42.6665C25.3865 74.6665 10.24 88.1065 8.1065 105.1735L2.7735 137.0665C1.6 146.1335 4.16 154.6665 9.7065 160.8535C15.2535 167.04 23.36 170.6665 32 170.6665H96C104.8535 170.6665 112.8535 166.9335 117.9735 160.4265C119.1465 158.8265 120.2135 157.12 121.0665 155.2C125.6535 156.16 130.3465 156.16 134.8265 155.2C135.68 157.12 136.7465 158.8265 138.0265 160.4265C143.04 166.9335 151.04 170.6665 160 170.6665H224C232.64 170.6665 240.7465 167.04 246.2935 160.8535C251.7335 154.6665 254.2935 146.1335 253.2265 137.4935L247.7865 104.7465C245.76 88.1065 230.5065 74.6665 213.3335 74.6665H181.3335C164.6935 74.6665 148.48 87.36 144.4265 103.4665L134.8265 132.3735C130.7735 135.36 125.12 135.36 121.0665 132.3735L111.2535 102.72C107.4135 87.2535 91.3065 74.6665 74.6665 74.6665z" />
    <glyph glyph-name="subdirectory-arrow-right"
      unicode="&#xEA60;"
      horiz-adv-x="256" d="M202.6665 96L138.6665 32L123.52 47.1465L161.8135 85.3335H42.6665V213.3335H64V106.6665H161.8135L123.52 144.8535L138.6665 160L202.6665 96z" />
    <glyph glyph-name="subdirectory-arrow-left"
      unicode="&#xEA61;"
      horiz-adv-x="256" d="M117.3335 160L132.48 144.8535L94.1865 106.6665H192V213.3335H213.3335V85.3335H94.1865L132.48 47.1465L117.3335 32L53.3335 96L117.3335 160z" />
    <glyph glyph-name="sleep-off"
      unicode="&#xEA62;"
      horiz-adv-x="256" d="M21.3335 199.7865L34.9865 213.3335L213.3335 34.9865L199.7865 21.3335L135.7865 85.3335H96V106.6665L104.4265 116.6935L21.3335 199.7865M245.3335 128H181.3335V149.3335L217.4935 192H181.3335V213.3335H245.3335V192L209.28 149.3335H245.3335V128M104.7465 170.6665H160V149.3335L144.4265 130.9865L104.7465 170.6665M74.6665 42.6665H10.6665V64L46.8265 106.6665H10.6665V128H74.6665V106.6665L38.6135 64H74.6665V42.6665z" />
    <glyph glyph-name="store"
      unicode="&#xEA63;"
      horiz-adv-x="256" d="M128 64H64V106.6665H128M224 106.6665V128L213.3335 181.3335H42.6665L32 128V106.6665H42.6665V42.6665H149.3335V106.6665H192V42.6665H213.3335V106.6665M213.3335 213.3335H42.6665V192H213.3335V213.3335z" />
    <glyph glyph-name="stop-circle-outline"
      unicode="&#xEA64;"
      horiz-adv-x="256" d="M128 234.6665C69.12 234.6665 21.3335 186.88 21.3335 128S69.12 21.3335 128 21.3335S234.6665 69.12 234.6665 128S186.88 234.6665 128 234.6665M128 213.3335C175.04 213.3335 213.3335 175.04 213.3335 128S175.04 42.6665 128 42.6665S42.6665 80.96 42.6665 128S80.96 213.3335 128 213.3335M96 160V96H160V160" />
    <glyph glyph-name="stop-circle"
      unicode="&#xEA65;"
      horiz-adv-x="256" d="M128 234.6665C69.12 234.6665 21.3335 186.88 21.3335 128S69.12 21.3335 128 21.3335S234.6665 69.12 234.6665 128S186.88 234.6665 128 234.6665M96 160H160V96H96" />
    <glyph glyph-name="stop"
      unicode="&#xEA66;"
      horiz-adv-x="256" d="M192 64H64V192H192V64z" />
    <glyph glyph-name="stethoscope"
      unicode="&#xEA67;"
      horiz-adv-x="256" d="M202.6665 170.6665C208.64 170.6665 213.3335 166.08 213.3335 160C213.3335 154.1335 208.5335 149.3335 202.6665 149.3335C196.5865 149.3335 192 154.1335 192 160C192 166.08 196.5865 170.6665 202.6665 170.6665M21.3335 234.6665V138.6665C21.3335 107.0935 44.6935 80 76.16 75.6265C82.7735 43.52 111.1465 21.3335 144 21.3335C182.2935 21.3335 213.3335 52.3735 213.3335 90.6665V130.0265C225.7065 134.5065 234.6665 146.24 234.6665 160C234.6665 177.7065 220.3735 192 202.6665 192S170.6665 177.7065 170.6665 160C170.6665 146.24 179.6265 134.4 192 130.0265V91.6265C192 64.96 170.6665 43.6265 144 43.6265C122.6665 43.6265 104.7465 56.5335 98.3465 75.7335C128 82.1335 149.3335 108.8 149.3335 138.6665V234.6665H106.6665V202.6665H128V138.6665C128 115.0935 108.9065 96 85.3335 96S42.6665 115.0935 42.6665 138.6665V202.6665H64V234.6665H21.3335z" />
    <glyph glyph-name="step-forward-2"
      unicode="&#xEA68;"
      horiz-adv-x="256" d="M74.6665 202.6665H106.6665V53.3335H74.6665V202.6665M128 202.6665L245.3335 128L128 53.3335V202.6665M21.3335 202.6665H53.3335V53.3335H21.3335V202.6665z" />
    <glyph glyph-name="step-forward"
      unicode="&#xEA69;"
      horiz-adv-x="256" d="M53.3335 202.6665V53.3335H85.3335V202.6665M106.6665 202.6665V53.3335L224 128" />
    <glyph glyph-name="step-backward-2"
      unicode="&#xEA6A;"
      horiz-adv-x="256" d="M181.3335 202.6665H149.3335V53.3335H181.3335V202.6665M128 202.6665L10.6665 128L128 53.3335V202.6665M234.6665 202.6665H202.6665V53.3335H234.6665V202.6665z" />
    <glyph glyph-name="step-backward"
      unicode="&#xEA6B;"
      horiz-adv-x="256" d="M202.6665 202.6665V53.3335H170.6665V202.6665M149.3335 202.6665V53.3335L32 128" />
    <glyph glyph-name="star-outline"
      unicode="&#xEA6C;"
      horiz-adv-x="256" d="M128 91.84L87.8935 67.6265L98.4535 113.28L63.04 144L109.76 147.9465L128 191.04L146.24 147.9465L192.96 144L157.5465 113.28L168.1065 67.6265M234.6665 157.44L157.9735 163.9465L128 234.6665L98.0265 163.9465L21.3335 157.44L79.4665 106.9865L62.08 32L128 71.7865L193.92 32L176.4265 106.9865L234.6665 157.44z" />
    <glyph glyph-name="star-off"
      unicode="&#xEA6D;"
      horiz-adv-x="256" d="M21.3335 199.7865L34.9865 213.3335L213.3335 34.9865L199.7865 21.3335L181.8665 39.36L128 71.7865L62.08 32L79.4665 106.9865L21.3335 157.44L60.3735 160.7465L21.3335 199.7865M128 234.6665L157.9735 164.0535L234.6665 157.44L176.4265 106.9865L178.88 96.5335L101.9735 173.44L128 234.6665z" />
    <glyph glyph-name="star-half"
      unicode="&#xEA6E;"
      horiz-adv-x="256" d="M128 91.7335V190.9335L146.24 147.9465L192.96 144L157.5465 113.1735L168.1065 67.52M234.6665 157.44L157.9735 163.9465L128 234.6665L98.0265 163.9465L21.3335 157.44L79.4665 106.9865L62.08 32L128 71.7865L193.92 32L176.4265 106.9865L234.6665 157.44z" />
    <glyph glyph-name="star-circle"
      unicode="&#xEA6F;"
      horiz-adv-x="256" d="M173.12 64L128 91.2L82.88 64L94.8265 115.3065L55.04 149.76L107.52 154.24L128 202.6665L148.48 154.3465L200.96 149.8665L161.1735 115.4135L173.12 64M128 234.6665C69.0135 234.6665 21.3335 186.6665 21.3335 128C21.3335 69.12 69.12 21.3335 128 21.3335S234.6665 69.12 234.6665 128S186.88 234.6665 128 234.6665z" />
    <glyph glyph-name="star"
      unicode="&#xEA70;"
      horiz-adv-x="256" d="M128 71.7865L193.92 32L176.4265 106.9865L234.6665 157.44L157.9735 164.0535L128 234.6665L98.0265 164.0535L21.3335 157.44L79.4665 106.9865L62.08 32L128 71.7865z" />
    <glyph glyph-name="stackoverflow"
      unicode="&#xEA71;"
      horiz-adv-x="256" d="M185.1735 40.5335V97.92H204.2665V21.3335H32V97.92H51.2V40.5335H185.1735M72.2135 103.2535L76.16 122.0265L169.92 102.2935L165.9735 83.52L72.2135 103.2535M84.5865 148.16L92.6935 165.3335L179.5200000000001 125.0135L171.4135 107.7335L84.5865 148.16M108.6935 190.72L120.96 205.44L194.56 144L182.2935 129.3865L108.6935 190.72M156.16 236.0535L213.3335 159.1465L197.9735 147.7335L140.8 224.64L156.16 236.0535M70.2935 59.6265V78.8265H166.08V59.6265H70.2935z" />
    <glyph glyph-name="stackexchange"
      unicode="&#xEA72;"
      horiz-adv-x="256" d="M42.6665 106.24V138.6665H213.3335V106.24H42.6665M42.6665 149.3335V181.3335H213.3335V149.3335H42.6665M186.24 234.6665C201.1735 234.6665 213.3335 222.08 213.3335 206.6135V192H42.6665V206.6135C42.6665 222.08 54.8265 234.6665 69.76 234.6665H186.24M42.6665 96H213.3335V81.6C213.3335 66.0265 201.1735 53.3335 186.24 53.3335H176L138.6665 21.3335V53.3335H69.76C54.8265 53.3335 42.6665 66.0265 42.6665 81.6V96z" />
    <glyph glyph-name="spray"
      unicode="&#xEA73;"
      horiz-adv-x="256" d="M106.6665 213.3335H128V192H106.6665V213.3335M74.6665 224H96V202.6665H74.6665V224M74.6665 192H96V170.6665H74.6665V192M64 170.6665V149.3335H42.6665V170.6665H64M64 202.6665V181.3335H42.6665V202.6665H64M64 234.6665V213.3335H42.6665V234.6665H64M138.6665 21.3335C126.9335 21.3335 117.3335 30.9335 117.3335 42.6665V149.3335C117.3335 161.0665 126.9335 170.6665 138.6665 170.6665V181.3335H149.3335V213.3335H181.3335V181.3335H192V170.6665C203.7335 170.6665 213.3335 161.0665 213.3335 149.3335V42.6665C213.3335 30.9335 203.7335 21.3335 192 21.3335H138.6665M138.6665 149.3335V42.6665H192V149.3335H138.6665z" />
    <glyph glyph-name="spotlight"
      unicode="&#xEA74;"
      horiz-adv-x="256" d="M21.3335 192L75.6265 164.8C68.2665 154.6665 64 141.76 64 128S68.2665 101.3335 75.6265 91.2L21.3335 64V192M64 224H192L164.8 180.3735C154.6665 187.7335 141.76 192 128 192S101.3335 187.7335 91.2 180.3735L64 224M234.6665 192V64L180.3735 91.2C187.7335 101.3335 192 114.24 192 128S187.7335 154.6665 180.3735 164.8L234.6665 192M192 32H64L91.2 75.6265C101.3335 68.2665 114.24 64 128 64S154.6665 68.2665 164.8 75.6265L192 32M128 170.6665C151.5735 170.6665 170.6665 151.5735 170.6665 128S151.5735 85.3335 128 85.3335S85.3335 104.4265 85.3335 128S104.4265 170.6665 128 170.6665M128 149.3335C116.2665 149.3335 106.6665 139.7335 106.6665 128S116.2665 106.6665 128 106.6665S149.3335 116.2665 149.3335 128S139.7335 149.3335 128 149.3335z" />
    <glyph glyph-name="spotify"
      unicode="&#xEA75;"
      horiz-adv-x="256" d="M190.9335 139.7335C156.8 160 99.7335 162.1335 67.2 152C61.8665 150.4 56.5335 153.6 54.9335 158.4C53.3335 163.7335 56.5335 169.0665 61.3335 170.6665C99.2 181.8665 161.6 179.7335 201.0665 156.2665C205.8665 153.6 207.4665 147.2 204.8 142.4C202.1335 138.6665 195.7335 137.0665 190.9335 139.7335M189.8665 109.8665C187.2 106.1335 182.4 104.5335 178.6665 107.2C149.8665 124.8 106.1335 130.1335 72.5335 119.4665C68.2665 118.4 63.4665 120.5335 62.4 124.8C61.3335 129.0665 63.4665 133.8665 67.7335 134.9335C106.6665 146.6665 154.6665000000001 140.8 187.7335 120.5335C190.9335 118.9335 192.5335 113.6 189.8665 109.8665M177.0665 80.5335C174.9335 77.3335 171.2 76.2665 168 78.4C142.9335000000001 93.8665 111.4665 97.0665 74.1335 88.5335C70.4 87.4665 67.2 90.1335 66.1335 93.3335C65.0665 97.0665 67.7335 100.2665 70.9335 101.3335C111.4665 110.4 146.6665 106.6665 174.4 89.6C178.1335 88 178.6665 83.7335 177.0665 80.5335M128 234.6665C69.12 234.6665 21.3335 186.88 21.3335 128S69.12 21.3335 128 21.3335S234.6665 69.12 234.6665 128S186.88 234.6665 128 234.6665z" />
    <glyph glyph-name="speedometer"
      unicode="&#xEA76;"
      horiz-adv-x="256" d="M128 85.3335C110.2935 85.3335 96 99.6265 96 117.3335C96 129.28 102.5065 139.7335 112 145.1735L215.5735 205.12L156.5865 102.9335C151.2535 92.48 140.48 85.3335 128 85.3335M128 224C147.3065 224 165.3335 218.6665 181.0135 209.92L158.6135 197.0135C149.3335 200.64 138.6665 202.6665 128 202.6665C80.8535 202.6665 42.6665 164.48 42.6665 117.3335C42.6665 93.76 52.16 72.4265 67.6265 57.0665H67.7335C71.8935 52.9065 71.8935 46.1865 67.7335 42.0265C63.5735 37.8665 56.7465 37.8665 52.5865 41.92C33.28 61.2265 21.3335 87.8935 21.3335 117.3335C21.3335 176.2135 69.12 224 128 224M234.6665 117.3335C234.6665 87.8935 222.72 61.2265 203.4135 41.92C199.2535 37.8665 192.5335 37.8665 188.3735 42.0265C184.2135 46.1865 184.2135 52.9065 188.3735 57.0665C203.84 72.5335 213.3335 93.76 213.3335 117.3335C213.3335 128 211.3065 138.6665 207.5735 148.2665L220.48 170.6665C229.3335 154.6665 234.6665 136.7465 234.6665 117.3335z" />
    <glyph glyph-name="speaker-off"
      unicode="&#xEA77;"
      horiz-adv-x="256" d="M21.3335 199.7865L34.9865 213.3335L224 24.32L210.4535 10.6665L194.88 26.24C191.2535 23.1465 186.6665 21.3335 181.3335 21.3335H74.6665C62.8265 21.3335 53.3335 30.9335 53.3335 42.6665V167.7865L21.3335 199.7865M128 64C110.2935 64 96 78.2935 96 96C96 104.1065 98.9865 111.5735 104 117.3335L88.8535 132.2665C80 122.6665 74.6665 109.9735 74.6665 96C74.6665 66.56 98.56 42.6665 128 42.6665C141.9735 42.6665 154.6665 48 164.2665 56.8535L149.3335 72C143.4665 66.9865 136.1065 64 128 64M181.3335 96C181.3335 125.44 157.44 149.3335 128 149.3335H126.08L54.6135 220.8C57.7065 228.9065 65.4935 234.6665 74.6665 234.6665H181.3335C193.0665 234.6665 202.6665 225.0665 202.6665 213.3335V72.7465L181.3335 94.1865V96M128 213.3335A21.26 21.26 0 0 1 106.6665 192C106.6665 180.2665 116.2665 170.6665 128 170.6665S149.3335 180.2665 149.3335 192C149.3335 203.84 139.7335 213.3335 128 213.3335z" />
    <glyph glyph-name="speaker"
      unicode="&#xEA78;"
      horiz-adv-x="256" d="M128 128C110.2935 128 96 113.7065 96 96S110.2935 64 128 64S160 78.2935 160 96S145.7065 128 128 128M128 42.6665C98.56 42.6665 74.6665 66.56 74.6665 96S98.56 149.3335 128 149.3335S181.3335 125.44 181.3335 96S157.44 42.6665 128 42.6665M128 213.3335C139.7335 213.3335 149.3335 203.7335 149.3335 192S139.7335 170.6665 128 170.6665C116.16 170.6665 106.6665 180.2665 106.6665 192A21.26 21.26 0 0 0 128 213.3335M181.3335 234.6665H74.6665A21.26 21.26 0 0 1 53.3335 213.3335V42.6665C53.3335 30.9335 62.9335 21.3335 74.6665 21.3335H181.3335C193.0665 21.3335 202.6665 30.9335 202.6665 42.6665V213.3335C202.6665 225.1735 193.0665 234.6665 181.3335 234.6665z" />
    <glyph glyph-name="skype"
      unicode="&#xEA79;"
      horiz-adv-x="256" d="M192 192C214.08 170.24 222.4 139.84 217.1735 111.4665C221.5465 103.7865 224 94.8265 224 85.3335C224 55.8935 200.1065 32 170.6665 32C161.1735 32 152.2135 34.4535 144.5335 38.8265C116.16 33.6 85.76 41.92 64 64C41.92 85.76 33.6 116.16 38.8265 144.5335C34.4535 152.2135 32 161.1735 32 170.6665C32 200.1065 55.8935 224 85.3335 224C94.8265 224 103.7865 221.5465 111.4665 217.1735C139.84 222.4 170.24 214.08 192 192M128.4265 72.96C159.04 72.96 174.2935 87.68 174.2935 107.52C174.2935 120.2135 168.32 133.76 145.1735 138.9865L123.9465 143.68C115.84 145.4935 106.6665 147.9465 106.6665 155.52C106.6665 163.2 113.0665 168.5335 124.8 168.5335C148.5865 168.5335 146.3465 152.2135 158.1865 152.2135C164.3735 152.2135 169.7065 155.84 169.7065 162.1335C169.7065 176.7465 146.3465 187.7335 126.5065 187.7335C105.0665 187.7335 82.1335 178.56 82.1335 154.24C82.1335 142.5065 86.2935 130.0265 109.3335 124.2665L138.0265 117.0135C146.6665 114.88 148.8 110.08 148.8 105.6C148.8 98.3465 141.5465 91.2 128.4265 91.2C102.72 91.2 106.24 110.9335 92.48 110.9335C86.2935 110.9335 81.8135 106.6665 81.8135 100.5865C81.8135 88.7465 96 72.96 128.4265 72.96z" />
    <glyph glyph-name="soundcloud"
      unicode="&#xEA7A;"
      horiz-adv-x="256" d="M123.3065 161.3865V74.6665H216.7465C236.48 76.0535 245.3335 88.2135 245.3335 103.1465C245.3335 118.9335 233.3865 131.6265 217.3865 131.6265C213.3335 131.6265 209.92 130.7735 206.4 129.28C203.84 154.24 182.6135 173.76 156.48 173.76C144 173.76 132.16 169.0665 123.3065 161.3865M113.92 150.5065C110.72 152.4265 107.3065 153.92 103.5735 154.6665V74.6665H118.4V156.3735C116.8 154.6665 115.3065 152.5335 113.92 150.5065M88.8535 156.2665V74.6665H98.6665V155.9465C96.64 156.2665 94.6135 156.3735 92.48 156.3735C91.2 156.3735 90.0265 156.3735 88.8535 156.2665M69.3335 149.3335V74.6665H79.04V154.24A37.7345 37.7345 0 0 1 69.3335 149.3335M51.52 122.6665C50.88 122.6665 50.24 123.3065 49.4935 123.6265V74.6665H59.3065V140.16C55.36 135.04 52.6935 128.96 51.52 122.6665M29.76 125.6535V75.6265C32 74.9865 34.56 74.6665 37.3335 74.6665H39.68V126.5065C38.8265 126.6135 37.9735 126.72 37.3335 126.72C34.56 126.72 32 126.2935 29.76 125.6535M10.6665 100.6935C10.6665 92.6935 14.2935 85.6535 19.9465 80.8535V120.4265C14.2935 115.7335 10.6665 108.5865 10.6665 100.6935z" />
    <glyph glyph-name="sort-numeric"
      unicode="&#xEA7B;"
      horiz-adv-x="256" d="M82.9865 181.3335C96.8535 180.9065 106.6665 175.68 112.7465 165.76C118.72 155.7335 121.7065 143.36 121.4935 128.5335C121.6 112 118.2935 98.88 112 89.3865C105.3865 80 95.4665 74.9865 82.24 74.6665C68.8 75.0935 59.0935 80 52.9065 90.0265C46.72 99.9465 43.6265 112.5335 43.6265 128S46.8265 156.16 53.3335 165.9735C59.6265 176 69.3335 180.9065 82.9865 181.3335M82.6665 163.9465C77.9735 163.9465 74.24 161.0665 71.4665 155.0935C68.6935 149.3335 67.4135 140.0535 67.4135 128C67.3065 115.7335 68.6935 106.6665 71.36 100.9065C74.1335 94.9335 77.9735 92.0535 82.88 92.0535C92.6935 92.0535 97.7065 104.1065 97.8135 128C97.8135 151.7865 92.8 163.7335 82.6665 163.9465M142.1865 74.6665V93.6535L146.7735 93.44L152.5335 93.6535L163.6265 95.68C167.2535 96.8535 170.6665 98.3465 173.44 100.48C176.96 102.9335 179.84 105.8135 182.08 109.2265C184.4265 112.5335 186.0265 116.0535 186.9865 119.68L186.6665 119.7865C181.8665 115.3065 174.72 113.0665 165.0135 112.96C155.9465 113.0665 148.3735 115.7335 142.2935 121.0665C136.2135 126.4 133.3335 134.08 132.9065 144C133.0135 154.6665 136.64 163.3065 143.68 170.3465C150.8265 177.3865 160 181.0135 171.9465 181.3335C185.28 180.9065 195.0935 176.5335 201.3865 168.1065C207.68 160 210.7735 149.3335 210.7735 136.64C210.6665 126.4 209.1735 117.3335 206.08 109.2265C202.9865 101.3335 198.8265 94.6135 193.28 89.1735C188.3735 84.6935 182.5065 81.28 175.68 78.8265C168.8535 76.48 161.28 75.0935 152.96 74.6665H142.1865M171.3065 163.9465C166.9335 163.84 163.4135 162.1335 160.64 158.8265C157.9735 155.52 156.5865 151.04 156.5865 145.4935C156.5865 140.8 157.8665 136.96 160.32 133.76C162.88 130.4535 166.72 128.8535 171.84 128.7465C175.2535 128.7465 178.1335 129.4935 180.48 130.7735C182.8265 132.16 184.5335 133.76 185.7065 135.68C186.6665 136.8535 186.9865 138.9865 186.9865 141.76C187.0935 147.6265 185.92 152.64 183.4665 157.0135C181.0135 161.3865 176.96 163.7335 171.3065 163.9465M98.6665 202.6665L133.3335 237.3335L168 202.6665H98.6665M168 53.3335L133.3335 18.6665L98.6665 53.3335H168z" />
    <glyph glyph-name="sort-descending"
      unicode="&#xEA7C;"
      horiz-adv-x="256" d="M106.6665 117.3335V138.6665H192V117.3335H106.6665M106.6665 53.3335V74.6665H149.3335V53.3335H106.6665M106.6665 181.3335V202.6665H234.6665V181.3335H106.6665M64 74.6665H90.6665L53.3335 37.3335L16 74.6665H42.6665V213.3335H64V74.6665z" />
    <glyph glyph-name="sort-ascending"
      unicode="&#xEA7D;"
      horiz-adv-x="256" d="M106.6665 138.6665V117.3335H192V138.6665H106.6665M106.6665 202.6665V181.3335H149.3335V202.6665H106.6665M106.6665 74.6665V53.3335H234.6665V74.6665H106.6665M64 181.3335H90.6665L53.3335 218.6665L16 181.3335H42.6665V42.6665H64V181.3335z" />
    <glyph glyph-name="sort-alphabetical"
      unicode="&#xEA7E;"
      horiz-adv-x="256" d="M98.6665 202.6665L133.3335 237.3335L168 202.6665H98.6665M168 53.3335L133.3335 18.6665L98.6665 53.3335H168M94.8265 103.4665H64L56.32 74.6665H31.04L64 181.3335H96L129.3865 74.6665H103.1465L94.8265 103.4665M67.52 120.7465H91.3065L84.5865 143.36L81.8135 153.7065L79.1465 163.9465H78.8265L76.48 153.6L73.92 143.1465L67.52 120.7465M139.2 74.6665V88.1065L189.8665 160.32V160.96H144V181.3335H221.12V167.04L171.6265 96V95.1465H221.8665V74.6665H139.2z" />
    <glyph glyph-name="sort"
      unicode="&#xEA7F;"
      horiz-adv-x="256" d="M106.6665 117.3335V138.6665H192V117.3335H106.6665M106.6665 53.3335V74.6665H149.3335V53.3335H106.6665M106.6665 181.3335V202.6665H234.6665V181.3335H106.6665M64 74.6665H90.6665L53.3335 37.3335L16 74.6665H42.6665V181.3335H16L53.3335 218.6665L90.6665 181.3335H64V74.6665z" />
    <glyph glyph-name="solid"
      unicode="&#xEA80;"
      horiz-adv-x="256" d="M0 256H256V0H0" />
    <glyph glyph-name="sofa"
      unicode="&#xEA81;"
      horiz-adv-x="256" d="M74.6665 192H96C107.7335 192 117.3335 182.4 117.3335 170.6665V128H53.3335V170.6665C53.3335 182.4 62.9335 192 74.6665 192M160 192H181.3335C193.0665 192 202.6665 182.4 202.6665 170.6665V128H138.6665V170.6665C138.6665 182.4 148.2665 192 160 192M10.6665 160H21.3335C27.2 160 32 155.2 32 149.3335V128C32 116.2665 41.6 106.6665 53.3335 106.6665H202.6665C214.4 106.6665 224 116.2665 224 128V149.3335C224 155.2 228.8 160 234.6665 160H245.3335C251.2 160 256 155.2 256 149.3335V53.3335H224V74.6665H32V53.3335H0V149.3335C0 155.2 4.8 160 10.6665 160z" />
    <glyph glyph-name="soccer"
      unicode="&#xEA82;"
      horiz-adv-x="256" d="M128 234.6665C69.12 234.6665 21.3335 186.88 21.3335 128S69.12 21.3335 128 21.3335S234.6665 69.12 234.6665 128S186.88 234.6665 128 234.6665M128 224C146.7735 224 164.2665 218.3465 178.9865 208.96L176 202.6665H128L109.6535 211.6265L113.3865 222.6135C118.1865 223.4665 122.9865 224 128 224M101.6535 219.9465L98.0265 208.96L70.72 195.3065L57.3865 192.64C69.3335 205.5465 84.48 215.04 101.6535 219.9465M138.6665 192H170.6665L199.36 153.7065L186.0265 126.2935L157.9735 119.68L122.9865 160.64L138.6665 192M65.7065 184.96L74.6665 149.3335L61.6535 116.6935L34.3465 107.3065C32.8535 114.0265 32 120.8535 32 128C32 148.2665 38.2935 166.8265 48.96 182.2935L65.7065 184.96M219.3065 157.6535C222.4 148.3735 224 138.3465 224 128C224 112.64 220.0535 98.24 213.6535 85.3335H202.6665L193.7065 120.96L209.7065 152.96L219.3065 157.6535M85.3335 149.3335H117.3335L147.3065 114.3465L128 85.3335L94.2935 77.0135L69.6535 109.9735L85.3335 149.3335M128 74.6665L160 53.3335L150.72 34.9865C143.36 33.28 135.7865 32 128 32C109.3335 32 92.0535 37.3335 77.3335 46.6135L89.7065 64.96L128 74.6665M202.6665 74.6665H208C197.3335 58.6665 181.3335 46.1865 163.3065 39.04L170.6665 53.3335L202.6665 74.6665z" />
    <glyph glyph-name="snapchat"
      unicode="&#xEA83;"
      horiz-adv-x="256" d="M128 37.8665C115.3065 37.8665 107.7335 43.3065 101.0135 48C96 51.4135 91.52 54.72 86.1865 55.5735C73.92 56.2135 70.2935 55.5735 63.68 54.4C62.5065 54.4 61.12 54.72 60.5865 56.64C58.6665 64.64 58.1335 66.88 56.7465 67.0935C42.6665 69.3335 34.0265 72.5335 32.32 76.48C32 78.9335 32.7465 80 33.92 80C45.3335 82.0265 55.4665 88 64 98.0265C70.72 105.7065 73.92 113.1735 74.24 113.92C75.9465 117.3335 76.2665 120.32 75.3065 122.6665C73.4935 127.04 67.3065 128.96 60.5865 131.2C56.96 132.5865 51.0935 135.5735 51.84 139.7335C52.48 142.72 56.4265 144.8535 61.9735 144.4265C65.7065 142.72 68.9065 141.8665 71.7865 141.8665C75.3065 141.8665 76.9065 143.1465 77.3335 143.5735C76.16 162.3465 75.2 178.6665 79.36 187.9465C91.84 215.8935 118.1865 218.1335 128 218.1335C137.8135 218.1335 164.16 215.8935 176.64 187.9465C180.8 178.6665 179.84 162.3465 178.6665 143.5735C179.0935 143.1465 180.6935 141.8665 184.2135 141.8665C187.0935 141.8665 190.2935 142.72 194.0265 144.4265C199.5735 144.8535000000001 203.52 142.72 204.16 139.7335000000001C204.9065 135.5735 199.04 132.5865 195.4135 131.2000000000001C188.6935 128.96 182.5065 127.04 180.6935 122.6665000000001C179.7335 120.3200000000001 180.0535 117.3335000000001 181.76 113.9200000000001C182.08 113.1735000000001 185.28 105.7065 192 98.0265000000001C200.5335 88.0000000000001 210.6665 82.0265000000001 222.08 80.0000000000001C223.2535 80.0000000000001 224 78.9335000000001 223.68 76.4800000000001C221.9735 72.5335000000001 213.3335 69.3335 199.2535 67.0935C197.8665 66.88 197.3335 64.64 195.4135 56.64C194.88 54.7200000000001 193.4935 54.4 192.32 54.4C185.7065 55.5735 182.08 56.2135 169.8135 55.5735C164.48 54.72 160 51.4135 154.9865 48C148.2665 43.3065 140.6935 37.8665 128 37.8665z" />
    <glyph glyph-name="silverware"
      unicode="&#xEA84;"
      horiz-adv-x="256" d="M86.4 113.7065L41.7065 158.2935C25.0665 175.04 25.0665 202.0265 41.7065 218.6665L116.5865 144L86.4 113.7065M158.72 133.0135L143.04 117.3335L216.4265 43.9465L201.3865 28.9065L128 102.2935L54.6135 28.9065L39.5735 43.9465L143.68 148.0535C136.1065 164.3735 141.44 187.3065 158.4 204.2665C178.7735 224.7465 208 228.5865 223.5735 213.0135C239.2535000000001 197.3335 235.4135000000001 168.1065 214.9335000000001 147.7335C197.9735 130.7735 175.04 125.44 158.72 133.0135z" />
    <glyph glyph-name="server"
      unicode="&#xEA85;"
      horiz-adv-x="256" d="M42.6665 245.3335H213.3335C219.2 245.3335 224 240.5335 224 234.6665V192C224 186.1335 219.2 181.3335 213.3335 181.3335H42.6665C36.8 181.3335 32 186.1335 32 192V234.6665C32 240.5335 36.8 245.3335 42.6665 245.3335M42.6665 160H213.3335C219.2 160 224 155.2 224 149.3335V106.6665C224 100.8 219.2 96 213.3335 96H42.6665C36.8 96 32 100.8 32 106.6665V149.3335C32 155.2 36.8 160 42.6665 160M42.6665 74.6665H213.3335C219.2 74.6665 224 69.8665 224 64V21.3335C224 15.4665 219.2 10.6665 213.3335 10.6665H42.6665C36.8 10.6665 32 15.4665 32 21.3335V64C32 69.8665 36.8 74.6665 42.6665 74.6665M96 202.6665H106.6665V224H96V202.6665M96 117.3335H106.6665V138.6665H96V117.3335M96 32H106.6665V53.3335H96V32M53.3335 224V202.6665H74.6665V224H53.3335M53.3335 138.6665V117.3335H74.6665V138.6665H53.3335M53.3335 53.3335V32H74.6665V53.3335H53.3335z" />
    <glyph glyph-name="sleep"
      unicode="&#xEA86;"
      horiz-adv-x="256" d="M245.3335 128H181.3335V149.3335L217.4935 192H181.3335V213.3335H245.3335V192L209.28 149.3335H245.3335V128M160 85.3335H96V106.6665L132.16 149.3335H96V170.6665H160V149.3335L123.9465 106.6665H160V85.3335M74.6665 42.6665H10.6665V64L46.8265 106.6665H10.6665V128H74.6665V106.6665L38.6135 64H74.6665V42.6665z" />
    <glyph glyph-name="slack"
      unicode="&#xEA87;"
      horiz-adv-x="256" d="M109.12 136.96L137.7065 146.4535L146.88 119.04L118.2935 109.5465L109.12 136.96M188.6935 109.76C194.4535 111.68 197.3335 117.9735 195.6265 123.7335C193.7065 129.4935 187.4135 132.6935 181.6535 130.6665L167.7865 126.08L158.6135 153.4935L172.48 158.1865C178.24 160 181.3335 166.4 179.4135 172.16S171.2 181.3335 165.3335 179.0935L151.5735 174.5065L146.7735 188.8C144.8535 194.56 138.6665 197.76 132.8 195.7335C127.04 193.8135 123.9465 187.52 125.8665 181.76L130.6665 167.4665L102.08 157.9735L97.28 172.2665C95.36 178.0265 89.1735 181.3335 83.3065 179.2C77.5465 177.28 74.6665 170.9865 76.3735 165.3335L81.1735 150.9335L67.3064999999999 146.24C61.5465 144.32 58.6664999999999 138.0265 60.3734999999999 132.2665C61.8665 128 66.0264999999999 124.8 70.5065 124.6935L74.3465 125.3335L88.2135 129.92L97.3865 102.5065L83.52 97.8135C77.76 96 74.6665 89.6 76.5865 83.84C78.08 79.36 82.24 76.3735 86.72 76.2665L90.6665 76.9065L104.4265 81.4935L109.2265 67.2A10.928 10.928 0 0 1 119.36 59.6265L123.2 60.2665C128.96 62.1865 132.0535 68.3735 130.1335 74.24L125.3335 88.5335L153.92 98.0265L158.72 83.7335C160 79.2535 164.3735 76.3735 168.8535 76.2665L172.6935 76.8C178.4535 78.7199999999999 181.3335 85.0135 179.6265 90.6665L174.8265 105.0665L188.6935 109.76M225.8135 157.3335C247.7865 84.0535 230.6135 52.2665 157.3335 30.1865C84.0535 8.2135 52.2665 25.3865 30.1865 98.6665C8.2135 171.9465 25.3865 203.7335 98.6665 225.8135C171.9465 247.7865 203.7335 230.6135 225.8135000000001 157.3335z" />
    <glyph glyph-name="skype-business"
      unicode="&#xEA88;"
      horiz-adv-x="256" d="M128.32 79.68C99.9465 79.68 87.2535 93.6535 87.2535 104.1065C87.2535 109.44 91.2 113.28 96.64 113.28C108.8 113.28 105.7065 96 128.32 96C139.9465 96 146.4535 102.08 146.4535 108.5865C146.4535 112.4265 144.5335 116.6935 136.8535 118.6135L111.5735 124.9065C91.2 130.0265 87.4665 141.0135 87.4665 151.36C87.4665 172.9065 107.7335 181.0135 126.72 181.0135C144 181.0135 164.9065 171.3065 164.9065 158.4C164.9065 152.8535 160 149.6535 154.6665 149.6535C144 149.6535 146.1335 164.0535 125.2265 164.0535C114.88 164.0535 109.12 159.36 109.12 152.64C109.12 145.92 117.3335 144 124.3735 142.08L143.1465 137.92C163.6265 133.3335 168.8535 121.3865 168.8535 110.1865C168.8535 92.6935 155.4135 79.68 128.32 79.68M192 192C214.08 170.24 222.4 139.84 217.1735 111.4665C221.5465 103.7865 224 94.8265 224 85.3335C224 55.8935 200.1065 32 170.6665 32C161.1735 32 152.2135 34.4535 144.5335 38.8265C116.16 33.6 85.76 41.92 64 64C41.92 85.76 33.6 116.16 38.8265 144.5335C34.4535 152.2135 32 161.1735 32 170.6665C32 200.1065 55.8935 224 85.3335 224C94.8265 224 103.7865 221.5465 111.4665 217.1735C139.84 222.4 170.24 214.08 192 192M85.3335 202.6665C67.6265 202.6665 53.3335 188.3735 53.3335 170.6665C53.3335 162.24 56.5335 154.6665 61.8665 148.9065C54.4 125.0135 60.0535 97.92 78.9335 78.9335C97.92 60.0535 125.0135 54.4 148.9065 61.8665C154.6665 56.5335 162.24 53.3335 170.6665 53.3335C188.3735 53.3335 202.6665 67.6265 202.6665 85.3335C202.6665 93.76 199.4665 101.3335 194.1335 107.0935C201.6 130.9865 195.9465 158.08 177.0665 177.0665C158.08 195.9465 130.9865 201.6 107.0935 194.1335C101.3335 199.4665 93.76 202.6665 85.3335 202.6665z" />
    <glyph glyph-name="sitemap"
      unicode="&#xEA89;"
      horiz-adv-x="256" d="M96 234.6665V170.6665H117.3335V138.6665H53.3335A21.26 21.26 0 0 1 32 117.3335V85.3335H10.6665V21.3335H74.6665V85.3335H53.3335V117.3335H117.3335V85.3335H96V21.3335H160V85.3335H138.6665V117.3335H202.6665V85.3335H181.3335V21.3335H245.3335V85.3335H224V117.3335A21.26 21.26 0 0 1 202.6665 138.6665H138.6665V170.6665H160V234.6665H96z" />
    <glyph glyph-name="skip-previous-circle-outline"
      unicode="&#xEA8A;"
      horiz-adv-x="256" d="M128 234.6665C186.88 234.6665 234.6665 186.88 234.6665 128S186.88 21.3335 128 21.3335S21.3335 69.12 21.3335 128S69.12 234.6665 128 234.6665M128 213.3335C80.96 213.3335 42.6665 175.04 42.6665 128S80.96 42.6665 128 42.6665S213.3335 80.96 213.3335 128S175.04 213.3335 128 213.3335M170.6665 170.6665V85.3335L117.3335 128M106.6665 170.6665V85.3335H85.3335V170.6665" />
    <glyph glyph-name="skip-previous-circle"
      unicode="&#xEA8B;"
      horiz-adv-x="256" d="M128 234.6665C69.12 234.6665 21.3335 186.88 21.3335 128S69.12 21.3335 128 21.3335S234.6665 69.12 234.6665 128S186.88 234.6665 128 234.6665M85.3335 170.6665H106.6665V85.3335H85.3335M170.6665 170.6665V85.3335L117.3335 128" />
    <glyph glyph-name="skip-previous"
      unicode="&#xEA8C;"
      horiz-adv-x="256" d="M64 64V192H85.3335V64H64M101.3335 128L192 192V64L101.3335 128z" />
    <glyph glyph-name="skip-next-circle-outline"
      unicode="&#xEA8D;"
      horiz-adv-x="256" d="M128 234.6665C69.12 234.6665 21.3335 186.88 21.3335 128S69.12 21.3335 128 21.3335S234.6665 69.12 234.6665 128S186.88 234.6665 128 234.6665M128 213.3335C175.04 213.3335 213.3335 175.04 213.3335 128S175.04 42.6665 128 42.6665S42.6665 80.96 42.6665 128S80.96 213.3335 128 213.3335M85.3335 170.6665V85.3335L138.6665 128M149.3335 170.6665V85.3335H170.6665V170.6665" />
    <glyph glyph-name="skip-next-circle"
      unicode="&#xEA8E;"
      horiz-adv-x="256" d="M128 234.6665C69.12 234.6665 21.3335 186.88 21.3335 128S69.12 21.3335 128 21.3335S234.6665 69.12 234.6665 128S186.88 234.6665 128 234.6665M85.3335 170.6665L138.6665 128L85.3335 85.3335M149.3335 170.6665H170.6665V85.3335H149.3335" />
    <glyph glyph-name="skip-next"
      unicode="&#xEA8F;"
      horiz-adv-x="256" d="M170.6665 64H192V192H170.6665M64 64L154.6665 128L64 192V64z" />
    <glyph glyph-name="skip-forward"
      unicode="&#xEA90;"
      horiz-adv-x="256" d="M42.6665 202.6665V53.3335L117.3335 128M192 202.6665V53.3335H213.3335V202.6665M117.3335 202.6665V53.3335L192 128" />
    <glyph glyph-name="skip-backward"
      unicode="&#xEA91;"
      horiz-adv-x="256" d="M213.3335 202.6665V53.3335L138.6665 128M64 202.6665V53.3335H42.6665V202.6665M138.6665 202.6665V53.3335L64 128" />
    <glyph glyph-name="send"
      unicode="&#xEA92;"
      horiz-adv-x="256" d="M21.3335 32L245.3335 128L21.3335 224V149.3335L181.3335 128L21.3335 106.6665V32z" />
    <glyph glyph-name="silverware-spoon"
      unicode="&#xEA93;"
      horiz-adv-x="256" d="M158.72 133.0135L54.6135 28.9065L39.5735 43.9465L143.68 148.0535C136.1065 164.3735 141.44 187.3065 158.4 204.2665C178.7735 224.7465 208 228.5865 223.5735 213.0135C239.2535000000001 197.3335 235.4135000000001 168.1065 214.9335000000001 147.7335C197.9735 130.7735 175.04 125.44 158.72 133.0135z" />
    <glyph glyph-name="silverware-fork"
      unicode="&#xEA94;"
      horiz-adv-x="256" d="M54.6135 28.9065L39.5735 43.9465L142.5065 146.9865L140.3735 149.3335C132.0535 157.5465 132.0535 170.9865 140.3735 179.3065L186.6665 225.92L196.5865 216.1065L162.0265 181.3335L172.2665 171.3065L206.8265 205.9735L216.64 196.16L181.9735 161.6L192 151.36L226.7735 186.0265L236.5865 176L189.9735 129.7065C181.6535 121.3865 168.2135 121.3865 160 129.7065L157.6535 131.84L54.6135 28.9065z" />
    <glyph glyph-name="signal"
      unicode="&#xEA95;"
      horiz-adv-x="256" d="M32 32H64V64H32M85.3335 32H117.3335V106.6665H85.3335M138.6665 32H170.6665V160H138.6665M192 32H224V224H192V32z" />
    <glyph glyph-name="sigma-lower"
      unicode="&#xEA96;"
      horiz-adv-x="256" d="M202.6665 128C202.6665 80.8535 166.8265 42.6665 122.6665 42.6665S42.6665 80.8535 42.6665 128S78.5065 213.3335 122.6665 213.3335H213.3335V192H175.5735C192 176.32 202.6665 153.4935 202.6665 128M122.6665 192C90.24 192 64 163.3065 64 128S90.24 64 122.6665 64S181.3335 92.6935 181.3335 128S155.0935 192 122.6665 192z" />
    <glyph glyph-name="sigma"
      unicode="&#xEA97;"
      horiz-adv-x="256" d="M53.3335 213.3335H192V160H181.3335L170.6665 192H107.3065L145.6 137.28L101.76 74.6665H170.6665L181.3335 96H192V42.6665H53.3335L113.0665 128L53.3335 213.3335z" />
    <glyph glyph-name="shuffle-disabled"
      unicode="&#xEA98;"
      horiz-adv-x="256" d="M170.6665 208V181.3335H53.3335V160H170.6665V133.3335L208 170.6665M170.6665 122.6665V96H53.3335V74.6665H170.6665V48L208 85.3335" />
    <glyph glyph-name="shuffle"
      unicode="&#xEA99;"
      horiz-adv-x="256" d="M158.1865 112.96L143.1465 97.92L176.5335 64.5335L154.6665 42.6665H213.3335V101.3335L191.5735 79.5735L158.1865 112.96M154.6665 213.3335L176.4265 191.5735L42.6665 57.7065L57.7065 42.6665L191.5735 176.4265L213.3335 154.6665V213.3335M112.96 158.1865L57.7065 213.3335L42.6665 198.2935L97.8135 143.1465L112.96 158.1865z" />
    <glyph glyph-name="shredder"
      unicode="&#xEA9A;"
      horiz-adv-x="256" d="M64 224V181.3335H85.3335V202.6665H170.6665V181.3335H192V224H64M53.3335 170.6665C35.6265 170.6665 21.3335 156.3735 21.3335 138.6665V74.6665H53.3335V106.6665H202.6665V74.6665H234.6665V138.6665C234.6665 156.3735 220.3735 170.6665 202.6665 170.6665H53.3335M192 149.3335C197.8665 149.3335 202.6665 144.5335 202.6665 138.6665S197.8665 128 192 128S181.3335 132.8 181.3335 138.6665S186.1335 149.3335 192 149.3335M74.6665 85.3335V32H96V85.3335H74.6665M117.3335 85.3335V42.6665H138.6665V85.3335H117.3335M160 85.3335V32H181.3335V85.3335H160z" />
    <glyph glyph-name="shovel-off"
      unicode="&#xEA9B;"
      horiz-adv-x="256" d="M161.0665 236.6935L130.88 206.4C122.6665 198.08 122.6665 184.64 130.88 176.32L145.92 161.1735L138.6665 153.3865L154.0265 138.0265L161.8135 145.8135L176.64 130.9865C184.96 122.6665 198.5065 122.6665 206.8265 130.9865L237.0135 161.28L161.0665 236.6935M191.2535 146.3465L146.1335 191.36L161.1735 206.4L206.2935 161.28L191.2535 146.3465M220.8 40.1065L205.76 25.0665L122.6665 107.9465L112 97.28L142.1865 67.3065L128 52.3735C74.6665 0 37.3335 37.3335 37.3335 37.3335S-0.64 74.6665 52.16 128L67.3065 142.9335L97.3865 112.7465L108.0535 123.4135L25.0665 206.08L40.2135 221.2265L220.8 40.1065z" />
    <glyph glyph-name="shovel"
      unicode="&#xEA9C;"
      horiz-adv-x="256" d="M161.0665 236.6935L130.88 206.5065C122.6665 198.1865 122.6665 184.64 130.88 176.32L145.92 161.28L97.3865 112.7465L67.3065 142.9335L52.16 128C-0.64 74.6665 37.3335 37.3335 37.3335 37.3335S74.6665 0 128 52.3735L143.04 67.4135L113.1735 97.28L161.6 145.7065L176.4265 130.88C184.7465 122.6665 198.2935 122.6665 206.6135 130.88L236.8 161.0665L161.0665 236.6935M191.2535 146.3465L176.5335 161.0665L161.1735 176.4265L146.24 191.36L161.28 206.4L206.4 161.28L191.2535 146.3465z" />
    <glyph glyph-name="shopping"
      unicode="&#xEA9D;"
      horiz-adv-x="256" d="M128 117.3335C98.56 117.3335 74.6665 141.2265 74.6665 170.6665H96C96 152.96 110.2935 138.6665 128 138.6665S160 152.96 160 170.6665H181.3335C181.3335 141.2265 157.44 117.3335 128 117.3335M128 224C145.7065 224 160 209.7065 160 192H96C96 209.7065 110.2935 224 128 224M202.6665 192H181.3335C181.3335 221.44 157.44 245.3335 128 245.3335S74.6665 221.44 74.6665 192H53.3335A21.26 21.26 0 0 1 32 170.6665V42.6665C32 30.9335 41.6 21.3335 53.3335 21.3335H202.6665C214.4 21.3335 224 30.9335 224 42.6665V170.6665C224 182.5065 214.4 192 202.6665 192z" />
    <glyph glyph-name="shield-outline"
      unicode="&#xEA9E;"
      horiz-adv-x="256" d="M224 138.6665C224 79.4665 183.04 24.1065 128 10.6665C72.96 24.1065 32 79.4665 32 138.6665V202.6665L128 245.3335L224 202.6665V138.6665M128 32C168 42.6665 202.6665 90.24 202.6665 136.32V188.8L128 222.08L53.3335 188.8V136.32C53.3335 90.24 88 42.6665 128 32z" />
    <glyph glyph-name="shield"
      unicode="&#xEA9F;"
      horiz-adv-x="256" d="M128 245.3335L32 202.6665V138.6665C32 79.4665 72.96 24.1065 128 10.6665C183.04 24.1065 224 79.4665 224 138.6665V202.6665L128 245.3335z" />
    <glyph glyph-name="share"
      unicode="&#xEAA0;"
      horiz-adv-x="256" d="M224 138.6665L149.3335 213.3335V170.6665C74.6665 160 42.6665 106.6665 32 53.3335C58.6665 90.6665 96 107.7335 149.3335 107.7335V64L224 138.6665z" />
    <glyph glyph-name="shape-plus"
      unicode="&#xEAA1;"
      horiz-adv-x="256" d="M21.3335 234.6665H117.3335V138.6665H21.3335V234.6665M186.6665 234.6665C213.3335 234.6665 234.6665 213.3335 234.6665 186.6665S213.3335 138.6665 186.6665 138.6665S138.6665 160 138.6665 186.6665S160 234.6665 186.6665 234.6665M69.3335 106.6665L117.3335 21.3335H21.3335L69.3335 106.6665M202.6665 74.6665H234.6665V53.3335H202.6665V21.3335H181.3335V53.3335H149.3335V74.6665H181.3335V106.6665H202.6665V74.6665z" />
    <glyph glyph-name="settings"
      unicode="&#xEAA2;"
      horiz-adv-x="256" d="M128 90.6665C107.4135 90.6665 90.6665 107.4135 90.6665 128S107.4135 165.3335 128 165.3335S165.3335 148.5865 165.3335 128S148.5865 90.6665 128 90.6665M207.2535 117.6535C207.68 121.0665 208 124.48 208 128C208 131.52 207.68 135.04 207.2535 138.6665L229.76 156.0535C231.7865 157.6535 232.32 160.5335 231.04 162.88L209.7065 199.7865C208.4265 202.1335 205.5465 203.0935 203.2 202.1335L176.64 191.4665C171.0935 195.6265 165.3335 199.2535 158.6135 201.92L154.6665 230.1865C154.24 232.7465 152 234.6665 149.3335 234.6665H106.6665C104 234.6665 101.76 232.7465 101.3335 230.1865L97.3865 201.92C90.6665 199.2535 84.9065 195.6265 79.36 191.4665L52.8 202.1335C50.4535 203.0935 47.5735 202.1335 46.2935 199.7865L24.96 162.88C23.5735 160.5335 24.2135 157.6535 26.24 156.0535L48.7465 138.6665C48.32 135.04 48 131.52 48 128C48 124.48 48.32 121.0665 48.7465 117.6535L26.24 99.9465C24.2135 98.3465 23.5735 95.4665 24.96 93.12L46.2935 56.2135C47.5735 53.8665 50.4535 53.0135 52.8 53.8665L79.36 64.64C84.9065 60.3735 90.6665 56.7465 97.3865 54.08L101.3335 25.8135C101.76 23.2535 104 21.3335 106.6665 21.3335H149.3335C152 21.3335 154.24 23.2535 154.6665 25.8135L158.6135 54.08C165.3335 56.8535 171.0935 60.3735 176.64 64.64L203.2 53.8665C205.5465 53.0135 208.4265 53.8665 209.7065 56.2135L231.04 93.12C232.32 95.4665 231.7865 98.3465 229.76 99.9465L207.2535 117.6535z" />
    <glyph glyph-name="server-security"
      unicode="&#xEAA3;"
      horiz-adv-x="256" d="M32 245.3335H202.6665C208.5335 245.3335 213.3335 240.5335 213.3335 234.6665V192C213.3335 186.1335 208.5335 181.3335 202.6665 181.3335H32C26.1335 181.3335 21.3335 186.1335 21.3335 192V234.6665C21.3335 240.5335 26.1335 245.3335 32 245.3335M32 160H202.6665C208.5335 160 213.3335 155.2 213.3335 149.3335V142.1865L186.6665 154.0265L117.3335 123.3065V96H32C26.1335 96 21.3335 100.8 21.3335 106.6665V149.3335C21.3335 155.2 26.1335 160 32 160M32 74.6665H117.3335C117.9735 50.6665 128 27.7335 143.5735 10.6665H32C26.1335 10.6665 21.3335 15.4665 21.3335 21.3335V64C21.3335 69.8665 26.1335 74.6665 32 74.6665M85.3335 202.6665H96V224H85.3335V202.6665M85.3335 117.3335H96V138.6665H85.3335V117.3335M85.3335 32H96V53.3335H85.3335V32M42.6665 224V202.6665H64V224H42.6665M42.6665 138.6665V117.3335H64V138.6665H42.6665M42.6665 53.3335V32H64V53.3335H42.6665M186.6665 128L234.6665 106.6665V74.6665C234.6665 45.0135 214.1865 17.3865 186.6665 10.6665C159.1465 17.3865 138.6665 45.0135 138.6665 74.6665V106.6665L186.6665 128M186.6665 107.3065L160 95.36V66.9865C160 50.56 171.4135 35.2 186.6665 31.36V107.3065z" />
    <glyph glyph-name="server-off"
      unicode="&#xEAA4;"
      horiz-adv-x="256" d="M42.6665 245.3335H213.3335C219.2 245.3335 224 240.5335 224 234.6665V192C224 186.1335 219.2 181.3335 213.3335 181.3335H94.08L72.7465 202.6665H74.6665V224H53.3335V222.08L34.24 241.1735C36.16 243.7335 39.2535 245.3335 42.6665 245.3335M234.6665 13.6535L221.12 0L210.4535 10.6665H42.6665C36.8 10.6665 32 15.4665 32 21.3335V64C32 69.8665 36.8 74.6665 42.6665 74.6665H146.4535L125.12 96H42.6665C36.8 96 32 100.8 32 106.6665V149.3335C32 155.2 36.8 160 42.6665 160H61.12L39.2535 181.8665C36.0535 182.9335 33.6 185.3865 32.5335 188.5865L10.6665 210.4535L24.32 224L234.6665 13.6535M213.3335 160C219.2 160 224 155.2 224 149.3335V106.6665C224 100.8 219.2 96 213.3335 96H179.4135L115.4135 160H213.3335M213.3335 74.6665C219.2 74.6665 224 69.8665 224 64V51.4135L200.7465 74.6665H213.3335M96 202.6665H106.6665V224H96V202.6665M96 117.3335H103.7865L96 125.12V117.3335M96 32H106.6665V53.3335H96V32M53.3335 138.6665V117.3335H74.6665V138.6665H53.3335M53.3335 53.3335V32H74.6665V53.3335H53.3335z" />
    <glyph glyph-name="security"
      unicode="&#xEAA5;"
      horiz-adv-x="256" d="M128 128H202.6665C197.0135 84.16 167.68 45.0135 128 32.8535V128H53.3335V188.8L128 221.9735M128 245.3335L32 202.6665V138.6665C32 79.4665 72.96 24.2135 128 10.6665C183.04 24.2135 224 79.4665 224 138.6665V202.6665L128 245.3335z" />
    <glyph glyph-name="search-web"
      unicode="&#xEAA6;"
      horiz-adv-x="256" d="M165.3335 106.6665L218.6665 53.3335L202.6665 37.3335L149.3335 90.6665V99.0935L146.4535 102.08C134.2935 91.6265 118.5065 85.3335 101.3335 85.3335C63.04 85.3335 32 116.3735 32 154.6665S63.04 224 101.3335 224S170.6665 192.96 170.6665 154.6665C170.6665 137.4935 164.3735 121.7065 153.92 109.5465L156.9065 106.6665H165.3335M101.3335 208L95.4665 207.68C92.9065 202.1335 88.96 192.7465 86.08 181.3335H116.5865C113.7065 192.7465 109.76 202.1335 107.2 207.68C105.28 208 103.36 208 101.3335 208M147.52 181.3335C141.2265 192.32 131.0935 200.8535 118.9335 205.0135C121.4935 199.36 124.8 191.1465 127.2535 181.3335H147.52M55.1465 181.3335H75.4135C77.8665 191.1465 81.1735 199.36 83.7335 205.0135C71.5735 200.8535 61.44 192.32 55.1465 181.3335M48 154.6665C48 149.3335 48.8535 143.68 50.4535 138.6665H73.28L72 154.6665L73.28 170.6665H50.4535C48.8535 165.6535 48 160 48 154.6665M152.2135 138.6665C153.8135 143.68 154.6665 149.3335 154.6665 154.6665S153.8135 165.6535 152.2135 170.6665H129.3865C130.24 165.3335 130.6665 160 130.6665 154.6665S130.24 144 129.3865 138.6665H152.2135M83.9465 170.6665L82.6665 154.6665L83.9465 138.6665H118.72C119.5735 144 120 149.3335 120 154.6665S119.5735 165.3335 118.72 170.6665H83.9465M101.3335 101.3335C103.2535 101.3335 105.1735 101.3335 106.9865 101.6535C109.6535 107.2 113.7065 116.5865 116.5865 128H86.08C88.96 116.5865 93.0135 107.2 95.68 101.6535L101.3335 101.3335M147.52 128H127.2535C124.8 118.1865 121.4935 109.9735 118.9335 104.32C131.0935 108.48 141.2265 117.0135 147.52 128M55.1465 128C61.44 117.0135 71.5735 108.48 83.7335 104.32C81.1735 109.9735 77.8665 118.1865 75.4135 128H55.1465z" />
    <glyph glyph-name="sd"
      unicode="&#xEAA7;"
      horiz-adv-x="256" d="M192 170.6665H170.6665V213.3335H192M160 170.6665H138.6665V213.3335H160M128 170.6665H106.6665V213.3335H128M192 234.6665H106.6665L42.6665 170.6665V42.6665C42.6665 30.9335 52.2665 21.3335 64 21.3335H192C203.7335 21.3335 213.3335 30.9335 213.3335 42.6665V213.3335C213.3335 225.0665 203.7335 234.6665 192 234.6665z" />
    <glyph glyph-name="script"
      unicode="&#xEAA8;"
      horiz-adv-x="256" d="M149.3335 42.6665C161.0665 42.6665 170.6665 52.2665 170.6665 64V202.6665H96C90.1335 202.6665 85.3335 197.8665 85.3335 192V85.3335H53.3335V202.6665C53.3335 220.3735 67.6265 234.6665 85.3335 234.6665H202.6665C220.3735 234.6665 234.6665 220.3735 234.6665 202.6665V192H192V53.3335C192 35.6265 177.7065 21.3335 160 21.3335H53.3335C35.6265 21.3335 21.3335 35.6265 21.3335 53.3335V64H128C128 52.2665 137.6 42.6665 149.3335 42.6665z" />
    <glyph glyph-name="pencil-off"
      unicode="&#xEAA9;"
      horiz-adv-x="256" d="M199.04 234.6665C196.2665 234.6665 193.7065 233.7065 191.68 231.68L172.0535 211.9465L212.0535 171.9465L231.68 191.68C235.84 195.84 235.84 202.6665 231.68 206.6135L206.72 231.68C204.5865 233.7065 201.7065 234.6665 199.04 234.6665M34.9865 213.3335L21.3335 199.68L90.6665 130.6665L42.6665 82.6665V42.6665H82.6665L130.6665 90.6665L199.68 21.3335L213.3335 34.9865L144 104L104 144L34.9865 213.3335M160.64 200.64L117.6535 157.6535L157.6535 117.6535L200.64 160.64L160.64 200.64z" />
    <glyph glyph-name="school"
      unicode="&#xEAAA;"
      horiz-adv-x="256" d="M128 224L10.6665 160L128 96L224 148.3735V74.6665H245.3335V160M53.3335 115.4135V72.7465L128 32L202.6665 72.7465V115.4135L128 74.6665L53.3335 115.4135z" />
    <glyph glyph-name="scanner"
      unicode="&#xEAAB;"
      horiz-adv-x="256" d="M211.2 141.8665L44.8 202.6665L37.3335 182.4L187.7335 128H53.3335C41.6 128 32 118.4 32 106.6665V64C32 52.2665 41.6 42.6665 53.3335 42.6665H202.6665C214.4 42.6665 224 52.2665 224 64V122.6665C224 131.2 218.6665 139.7335 211.2 141.8665M74.6665 74.6665H53.3335V96H74.6665V74.6665M202.6665 74.6665H96V96H202.6665V74.6665z" />
    <glyph glyph-name="scale-balance"
      unicode="&#xEAAC;"
      horiz-adv-x="256" d="M128 224C114.4535 224 102.4 215.4665 97.92 202.6665H32V181.3335H52.8L21.3335 106.6665C16.32 85.3335 32 74.6665 58.6665 74.6665S101.9735 85.3335 96 106.6665L64.5335 181.3335H97.8135C101.3335 172.2665 108.2665 165.3335 117.3335 161.8135V42.6665H21.3335V21.3335H234.6665V42.6665H138.6665V161.92C147.7335 165.3335 154.6665 172.2665 158.08 181.3335H191.4665L160 106.6665C154.9865 85.3335 170.6665 74.6665 197.3335 74.6665S240.64 85.3335 234.6665 106.6665L203.2 181.3335H224V202.6665H158.1865C153.6 215.4665 141.5465 224 128 224M128 202.6665C133.8665 202.6665 138.6665 197.8665 138.6665 192S133.8665 181.3335 128 181.3335S117.3335 186.1335 117.3335 192S122.1335 202.6665 128 202.6665M58.6665 146.6665L74.6665 106.6665H42.6665L58.6665 146.6665M197.3335 146.6665L213.3335 106.6665H181.3335L197.3335 146.6665z" />
    <glyph glyph-name="scale"
      unicode="&#xEAAD;"
      horiz-adv-x="256" d="M90.24 95.36L75.2 80.32L60.5865 94.9335C51.4135 83.0935 45.2265 68.9065 43.3065 53.3335H64V32H21.3335V42.6665C21.3335 94.2935 58.0265 137.28 106.6665 147.2V168.5335L21.3335 202.6665V224H234.6665V202.6665L149.3335 168.5335V147.2C197.9735 137.28 234.6665 94.2935 234.6665 42.6665V32H192V53.3335H212.6935C210.7735 68.9065 204.5865 83.0935 195.4135 94.9335L180.8 80.32L165.76 95.36L180.3735 110.08C168.5335 119.2535 154.24 125.44 138.6665 127.36V106.6665H117.3335V127.36C101.76 125.44 87.4665 119.2535 75.6265 110.08L90.24 95.36M128 64C139.7335 64 149.3335 54.4 149.3335 42.6665S139.7335 21.3335 128 21.3335C124.5865 21.3335 121.3865 22.08 118.6135 23.5735L77.5465 42.6665L118.6135 61.76C121.3865 63.2535 124.5865 64 128 64z" />
    <glyph glyph-name="satellite-variant"
      unicode="&#xEAAE;"
      horiz-adv-x="256" d="M123.9465 245.3335L184.32 184.8535L161.7065 162.24L139.0935 184.8535L123.9465 169.7065L148.8 144.96L136.4265 132.48L141.2265 127.5735C151.1465 132.16 163.3065 130.4535 171.4135 122.24L133.76 84.5865C125.5465 92.6935 123.84 104.8535 128.4265 114.7735L123.5200000000001 119.5735L111.04 107.2L86.2935 132.0535L71.1465 116.9065L93.76 94.2935L71.1465 71.68L10.6665 132.0535000000001L33.4935 154.6665000000001L56.1065 132.0535000000001L71.1465 147.0935L40.96 177.28C32.64 185.6 32.64 199.1465 40.96 207.4665L48.5335 215.04C56.8535 223.36 70.4 223.36 78.72 215.04L108.9065 184.8535L123.9465 199.8935L101.3335 222.5065L123.9465 245.3335M192 106.6665C192 83.0935 172.9065 64 149.3335 64V85.3335C161.0665 85.3335 170.6665 94.9335 170.6665 106.6665H192M234.6665 106.6665C234.6665 59.52 196.48 21.3335 149.3335 21.3335V42.6665C184.64 42.6665 213.3335 71.36 213.3335 106.6665H234.6665z" />
    </font>
</defs>
</svg>
